<?xml version="1.0" encoding="utf-8"?>
<!-- Generator: Adobe Illustrator 16.0.0, SVG Export Plug-In . SVG Version: 6.00 Build 0)  -->
<!DOCTYPE svg PUBLIC "-//W3C//DTD SVG 1.1//EN" "http://www.w3.org/Graphics/SVG/1.1/DTD/svg11.dtd">
<svg version="1.1" id="Layer_1" xmlns="http://www.w3.org/2000/svg" xmlns:xlink="http://www.w3.org/1999/xlink" x="0px" y="0px"
	 width="201.415px" height="261.088px" viewBox="0 0 201.415 261.088" enable-background="new 0 0 201.415 261.088"
	 xml:space="preserve">
<g>
	<defs>
		<rect id="SVGID_1_" width="201.415" height="261.088"/>
	</defs>
	<clipPath id="SVGID_2_">
		<use xlink:href="#SVGID_1_"  overflow="visible"/>
	</clipPath>
	<path clip-path="url(#SVGID_2_)" fill="none" stroke="#8EC640" stroke-width="2" d="M8.806,172.717
		c0,28.2,14.855,44.315,42.049,44.315c27.193,0,42.048-16.115,42.048-44.315v-91.65c0-28.2-14.855-44.315-42.048-44.315
		c-27.194,0-42.049,16.115-42.049,44.315V172.717z M36.502,79.303c0-12.589,5.54-17.373,14.353-17.373
		c8.812,0,14.351,4.784,14.351,17.373v95.176c0,12.59-5.539,17.374-14.351,17.374c-8.813,0-14.353-4.784-14.353-17.374V79.303z"/>
	<polygon clip-path="url(#SVGID_2_)" fill="none" stroke="#8EC640" stroke-width="2" points="109.016,38.766 109.016,63.945 
		164.158,63.945 123.619,215.018 151.316,215.018 192.106,62.937 192.106,38.766 	"/>
</g>
</svg>
