<?xml version="1.0" encoding="utf-8"?>
<!-- Generator: Adobe Illustrator 16.0.0, SVG Export Plug-In . SVG Version: 6.00 Build 0)  -->
<!DOCTYPE svg PUBLIC "-//W3C//DTD SVG 1.1//EN" "http://www.w3.org/Graphics/SVG/1.1/DTD/svg11.dtd">
<svg version="1.1" id="Layer_1" xmlns="http://www.w3.org/2000/svg" xmlns:xlink="http://www.w3.org/1999/xlink" x="0px" y="0px"
	 width="360.313px" height="360px" viewBox="0 0 360.313 360" enable-background="new 0 0 360.313 360" xml:space="preserve">
<g>
	<defs>
		<rect id="SVGID_1_" width="360.313" height="360"/>
	</defs>
	<clipPath id="SVGID_2_">
		<use xlink:href="#SVGID_1_"  overflow="visible"/>
	</clipPath>
	<path clip-path="url(#SVGID_2_)" d="M285.433,35.422l14.074,7.695l7.696,14.074c1.054,1.926,3.07,3.121,5.265,3.121
		c2.192,0,4.211-1.195,5.267-3.121l7.694-14.074l14.074-7.695c1.926-1.055,3.121-3.074,3.121-5.266c0-2.191-1.195-4.211-3.121-5.265
		l-14.074-7.696l-7.694-14.074C316.679,1.195,314.66,0,312.468,0c-2.194,0-4.211,1.195-5.265,3.121l-7.696,14.074l-14.074,7.696
		c-1.926,1.054-3.12,3.074-3.12,5.265C282.313,32.352,283.507,34.367,285.433,35.422 M306.808,26.879
		c1.005-0.551,1.832-1.379,2.384-2.383l3.276-5.992l3.278,5.992c0.55,1.004,1.378,1.832,2.382,2.383l5.993,3.277l-5.993,3.278
		c-1.004,0.55-1.832,1.375-2.382,2.382l-3.278,5.993l-3.276-5.993c-0.552-1.007-1.379-1.836-2.384-2.382l-5.991-3.278
		L306.808,26.879z"/>
	<path clip-path="url(#SVGID_2_)" d="M3.121,143.422l14.074,7.695l7.695,14.074c1.055,1.926,3.074,3.121,5.266,3.121
		c2.191,0,4.211-1.195,5.265-3.121l7.696-14.074l14.074-7.695c1.926-1.055,3.121-3.074,3.121-5.266c0-2.191-1.195-4.211-3.121-5.265
		l-14.074-7.696l-7.696-14.074c-1.054-1.926-3.07-3.121-5.265-3.121c-2.192,0-4.211,1.195-5.266,3.121l-7.695,14.074l-14.074,7.696
		C1.195,133.945,0,135.965,0,138.156C0,140.352,1.195,142.367,3.121,143.422 M24.496,134.879c1.004-0.551,1.832-1.379,2.382-2.383
		l3.278-5.992l3.277,5.992c0.551,1.004,1.379,1.832,2.383,2.383l5.992,3.277l-5.992,3.278c-1.004,0.55-1.832,1.375-2.383,2.382
		l-3.277,5.993l-3.278-5.993c-0.55-1.007-1.378-1.832-2.382-2.382l-5.993-3.278L24.496,134.879z"/>
	<path clip-path="url(#SVGID_2_)" d="M359.71,351.379l-32.82-67.547l-7.237-21.727l-11.384,3.789l7.363,22.102
		c0.082,0.25,0.18,0.492,0.293,0.727l32.387,66.656V360h12v-6C360.312,353.09,360.105,352.195,359.71,351.379"/>
	<path clip-path="url(#SVGID_2_)" d="M294.195,296.246c-0.481-1.504-1.531-2.758-2.927-3.488l-24.508-12.883l-29.074-40.586
		c2.613-1.351,5.728-1.34,8.328,0.039l20.457,10.793c2.211,1.168,4.91,0.844,6.781-0.813c1.868-1.656,2.516-4.297,1.625-6.633
		l-27.378-71.77c-0.04-0.097-0.079-0.195-0.122-0.293c-1.711-3.871-0.5-8.41,2.914-10.918l36.313,48.586
		c0.026,0.039,0.059,0.078,0.09,0.117c2.965,3.762,5.207,8.035,6.621,12.609c0.012,0.043,0.022,0.082,0.039,0.125l10.913,32.762
		l11.388-3.793l-10.896-32.703c-1.84-5.934-4.75-11.477-8.59-16.359l-39.109-52.328c-1.516-2.031-4.151-2.887-6.573-2.141
		l-1.082,0.336c-5.703,1.762-10.383,5.867-12.879,11.289c-2.492,5.422-2.563,11.645-0.192,17.121l21.657,56.762l-6.375-3.363
		c-7.993-4.227-17.797-2.855-24.321,3.402l-1.882,1.801c-2.157,2.066-2.469,5.402-0.728,7.828l33.146,46.273
		c0.542,0.762,1.257,1.383,2.085,1.816l23.59,12.398l16.805,52.699V360h12v-6c0-0.617-0.094-1.234-0.284-1.824L294.195,296.246z"/>
	<path clip-path="url(#SVGID_2_)" d="M102.792,288.02l33.145-46.273c1.742-2.426,1.43-5.762-0.727-7.828l-1.882-1.801
		c-6.528-6.258-16.328-7.629-24.321-3.402l-6.375,3.363l21.657-56.762c2.371-5.476,2.3-11.703-0.192-17.121
		c-2.496-5.422-7.176-9.527-12.879-11.289l-1.082-0.336c-2.422-0.746-5.058,0.11-6.574,2.141l-39.109,52.328
		c-3.84,4.883-6.75,10.43-8.586,16.359l-22.133,66.434l-32.82,67.656c-0.395,0.816-0.602,1.711-0.602,2.621V360h12v-4.516
		l32.387-66.766c0.113-0.234,0.211-0.477,0.293-0.723l22.277-66.863c0.016-0.043,0.027-0.082,0.039-0.125
		c1.414-4.574,3.656-8.848,6.621-12.605c0.031-0.043,0.063-0.082,0.094-0.121l36.309-48.586c3.414,2.508,4.625,7.047,2.914,10.918
		c-0.043,0.098-0.082,0.196-0.122,0.293l-27.378,71.77c-0.891,2.336-0.243,4.977,1.625,6.633c1.871,1.656,4.57,1.98,6.781,0.813
		l20.457-10.793c2.601-1.379,5.715-1.39,8.328-0.039l-29.074,40.586l-24.508,12.883c-1.395,0.73-2.445,1.984-2.926,3.488
		l-17.832,55.93c-0.191,0.59-0.285,1.207-0.285,1.824v6h12v-5.066l16.805-52.699l23.59-12.398
		C101.535,289.402,102.25,288.781,102.792,288.02"/>
	<path clip-path="url(#SVGID_2_)" d="M216.527,301.594c0.601,2.184,2.383,3.848,4.608,4.293l54,10.797l2.353-11.766l-50.371-10.074
		l-8.043-29.242c0.289-0.234,0.578-0.469,0.862-0.707c2.742,0.66,5.556,0.992,8.375,0.988v-12c-13.456,0-24-11.367-24-25.875
		c-0.051-6.984,2.685-13.703,7.599-18.668c2.07-2.082,2.324-5.359,0.604-7.742c-3.276-4.543-5.026-10.012-5-15.613
		c0-10.339,5.856-19.672,14.918-23.77c1.664-0.75,2.896-2.219,3.345-3.988c0.448-1.77,0.069-3.649-1.031-5.102
		c-1.586-2.082-2.442-4.625-2.435-7.242c0-4.352,2.359-8.367,6.164-10.485c3.802-2.117,8.457-2.007,12.156,0.286
		c1.95,1.211,4.422,1.207,6.364-0.016c3.789-2.391,8.175-3.664,12.656-3.668c13.601,0,24.672,11.609,24.672,25.879
		c0.008,4.609-1.176,9.144-3.435,13.168l10.442,5.906c7.132-12.683,6.585-28.285-1.415-40.441
		c15.907-27.758,8.36-63.039-17.507-81.86l-1.75-1.273c-4.047-2.945-8.207-5.676-12.474-8.191
		c-1.108-12.352-9.512-23.653-23.94-32.067C219.746,4.66,200.589,0,180.312,0c-20.276,0-39.434,4.66-53.934,13.121
		c-14.429,8.414-22.832,19.715-23.941,32.067c-4.262,2.515-8.422,5.246-12.473,8.191l-1.746,1.273
		c-7.453,5.399-13.613,12.383-18.039,20.453l10.512,5.79c3.578-6.524,8.559-12.172,14.586-16.54l1.746-1.269
		c49.652-36.113,116.926-36.113,166.578,0l1.75,1.269c19.777,14.391,26.457,40.856,15.875,62.911
		c-4.887-3.704-10.644-6.09-16.719-6.934c-4.843-15.008-12.754-27.094-23.55-35.957c-12.321-10.117-28.508-16.121-48.122-17.844
		l-1.046,11.953c31.022,2.727,50.785,16.602,60.211,42.348c-2.887,0.637-5.684,1.629-8.325,2.953
		c-8.858-3.742-19.093-1.84-26.019,4.836c-6.922,6.676-9.196,16.836-5.778,25.824c-16.015,11.328-21.031,32.844-11.675,50.086
		c-5.157,6.738-7.935,14.992-7.892,23.477c0,13.098,6.017,24.445,15.359,31.219C198.007,266.223,188.5,270,180.312,270
		c-8.188,0-17.694-3.777-27.358-10.773c9.343-6.773,15.359-18.121,15.359-31.219c0.039-8.484-2.734-16.738-7.891-23.477
		c9.356-17.242,4.34-38.758-11.675-50.086c3.425-8.988,1.156-19.156-5.77-25.836c-6.926-6.675-17.168-8.578-26.027-4.824
		c-2.637-1.324-5.43-2.312-8.313-2.949c4.68-12.691,11.988-22.625,21.797-29.594C142.792,82.453,159.574,78,180.312,78V66
		c-23.281,0-42.401,5.203-56.832,15.461c-12.773,9.078-21.969,22.144-27.363,38.871c-6.078,0.844-11.832,3.23-16.719,6.938
		c-5.328-11.114-6.43-23.782-3.102-35.645l-11.55-3.25c-4.547,16.195-2.399,33.539,5.961,48.137
		c-8,12.156-8.547,27.758-1.415,40.441l10.442-5.906c-2.258-4.024-3.442-8.559-3.434-13.172C76.3,143.609,87.371,132,100.972,132
		c4.481,0.004,8.867,1.277,12.656,3.668c1.942,1.223,4.414,1.23,6.364,0.016c4.91-3.043,11.297-2.157,15.191,2.117
		c3.891,4.273,4.188,10.715,0.699,15.324c-1.105,1.453-1.484,3.332-1.035,5.102c0.449,1.769,1.68,3.238,3.344,3.988
		c9.062,4.097,14.918,13.43,14.918,23.77c0.027,5.602-1.723,11.07-5,15.613c-1.719,2.383-1.465,5.66,0.605,7.742
		c4.914,4.965,7.649,11.684,7.598,18.668c0,14.508-10.543,25.875-24,25.875v12c2.82,0.004,5.629-0.328,8.371-0.988
		c0.289,0.238,0.578,0.473,0.867,0.707l-8.043,29.242l-50.371,10.074l2.352,11.77l54-10.801c2.226-0.445,4.008-2.105,4.609-4.293
		l7.863-28.602c9.743,5.93,19.36,9.008,28.352,9.008c8.992,0,18.609-3.078,28.353-9.008L216.527,301.594z M180.312,24
		c-21.719-0.039-43.194,4.551-62.996,13.469C125.796,22.902,151.218,12,180.312,12c29.095,0,54.517,10.902,62.996,25.469
		C223.507,28.551,202.031,23.961,180.312,24"/>
	<path clip-path="url(#SVGID_2_)" d="M216.312,318.562V318h-12v0.562c-0.026,9.544,6.88,17.692,16.294,19.235l60.719,10.121
		l1.976-11.836l-60.722-10.121C218.957,325.367,216.304,322.234,216.312,318.562"/>
	<path clip-path="url(#SVGID_2_)" d="M144.312,318.562c0.008,3.673-2.645,6.806-6.266,7.399l-60.722,10.121l1.976,11.836
		l60.719-10.121c9.414-1.543,16.32-9.691,16.293-19.235V318h-12V318.562z"/>
</g>
</svg>
