<?xml version="1.0" encoding="utf-8"?>
<!-- Generator: Adobe Illustrator 16.0.0, SVG Export Plug-In . SVG Version: 6.00 Build 0)  -->
<!DOCTYPE svg PUBLIC "-//W3C//DTD SVG 1.1//EN" "http://www.w3.org/Graphics/SVG/1.1/DTD/svg11.dtd">
<svg version="1.1" id="Layer_1" xmlns="http://www.w3.org/2000/svg" xmlns:xlink="http://www.w3.org/1999/xlink" x="0px" y="0px"
	 width="384px" height="382px" viewBox="0 0 384 382" enable-background="new 0 0 384 382" xml:space="preserve">
<g>
	<defs>
		<rect id="SVGID_1_" width="384" height="382"/>
	</defs>
	<clipPath id="SVGID_2_">
		<use xlink:href="#SVGID_1_"  overflow="visible"/>
	</clipPath>
	<path clip-path="url(#SVGID_2_)" d="M341.352,44.852h-8.133V32.141c-0.02-17.539-14.23-31.75-31.77-31.77H85.398
		c-17.539,0.02-31.75,14.231-31.769,31.77v12.711h-8.133c-23.566-0.02-42.687,19.07-42.703,42.64
		C2.785,98.43,6.98,108.957,14.508,116.895l39.121,41.312V191H2.793v12.711h174.355c2.918-0.004,5.461,1.98,6.164,4.813
		l6.356,25.418c0.848,3.406-1.223,6.855-4.629,7.703c-0.5,0.129-1.019,0.191-1.539,0.191h-40.91c-3.512,0-6.356,2.848-6.356,6.355
		c0.004,3.027,2.141,5.633,5.106,6.23l12.07,2.414c5.043,1.02,8.785,5.285,9.141,10.418h-30.039l-29.91-29.91
		c-1.192-1.191-2.809-1.863-4.493-1.863H2.793v12.711h50.836v50.832H0v12.711h76.254c1.684,0,3.301-0.672,4.492-1.863l29.91-29.91
		h30.043c-0.355,5.137-4.097,9.402-9.144,10.418l-12.067,2.414c-3.441,0.691-5.672,4.039-4.98,7.48
		c0.594,2.969,3.199,5.102,6.226,5.105h40.911c3.511,0,6.355,2.844,6.355,6.355c0,0.52-0.062,1.035-0.188,1.539l-6.355,25.418
		c-0.703,2.832-3.246,4.816-6.164,4.813H0v12.711h53.629v19.063c0,3.508,2.844,6.355,6.351,6.355h266.887
		c3.508,0,6.352-2.848,6.352-6.355V158.203l39.109-41.297c16.203-17.14,15.441-44.176-1.699-60.383
		c-7.914-7.48-18.391-11.656-29.281-11.671H341.352z M108.023,267.254c-1.683,0-3.3,0.668-4.492,1.859l-29.91,29.91h-7.285v-50.832
		h29.141l19.062,19.063H108.023z M320.512,32.141v12.711h-76.41l-2.797-9.329c-2.652-8.5-8.227-16.324-15.449-22.445h75.594
		C311.973,13.09,320.5,21.617,320.512,32.141 M250.613,102.039v-6.355h59.539l-42.895,38.128H218.84v-12.71h12.711
		C242.074,121.09,250.602,112.562,250.613,102.039 M241.418,77.293c-2.152,1.074-3.512,3.277-3.512,5.684v19.062
		c-0.008,3.508-2.848,6.352-6.355,6.356h-19.063c-3.512,0-6.355,2.843-6.355,6.351v19.066h-44.481v-25.656
		c15.039-1.125,28.719-9.125,37.075-21.679c1.66-2.52,1.324-5.86-0.809-7.993l-6.168-6.164c-1.613-1.629-2.52-3.824-2.52-6.117
		c-0.003-0.922,0.149-1.836,0.442-2.711c1.164-3.543,4.473-5.937,8.199-5.933h8.262c3.508,0,6.355-2.844,6.355-6.356V18.926
		c7.95,4.84,14.137,12.226,16.66,20.316l4.18,14.012c0.188,0.754,0.516,1.469,0.961,2.109l13.242,18.875L241.418,77.293z
		 M119.59,133.812L76.695,95.684h68.321l3.925,7.855v30.273H119.59z M192.789,13.078c2.352,0.039,4.695,0.324,6.988,0.848v30.926
		h-1.906c-11.797,0-21.359,9.566-21.355,21.363c0,5.66,2.246,11.09,6.25,15.094l2.23,2.23c-2.863,3.18-6.262,5.832-10.043,7.832
		c-4.863,2.598-10.262,4.047-15.773,4.231l-12.602-25.215c-0.805-1.633-1.5-3.317-2.09-5.039
		c15.403-9.043,21.45-28.282,13.989-44.508c1.171-0.863,2.39-1.664,3.648-2.399c6.008-3.507,12.84-5.359,19.797-5.363H192.789z
		 M126.703,13.078c12.281,0,22.238,9.957,22.238,22.242c0,12.282-9.957,22.239-22.238,22.239c-12.281,0-22.242-9.957-22.242-22.239
		C104.477,23.039,114.426,13.094,126.703,13.078 M66.336,32.141c0.012-10.524,8.539-19.051,19.062-19.063h14.368
		c-7.344,8.836-9.836,20.734-6.657,31.774H66.336V32.141z M66.336,171.629L84.676,191h-18.34V171.629z M161.645,292.672h-12.336
		c0.296-0.445,0.582-0.898,0.855-1.363c1.965-3.465,3.039-7.363,3.121-11.348h14.723c2.734,0,5.164-1.75,6.027-4.348
		c2.184-6.555,1.445-13.734-2.019-19.715c-0.27-0.46-0.551-0.914-0.852-1.355H183.5c10.531,0,19.066-8.531,19.066-19.063
		c0-1.559-0.191-3.109-0.57-4.621l-6.355-25.418c-2.109-8.492-9.743-14.449-18.493-14.441H142.59
		c0.008-7.016,5.691-12.703,12.707-12.707h50.074c10.582-0.031,20.141,6.316,24.219,16.082c1.285,3.211,1.949,6.637,1.961,10.098
		v17.535c0.016,6.949-2.746,13.613-7.672,18.512c-4.59,4.539-7.957,10.16-9.793,16.348c-0.047,0.148-0.086,0.305-0.121,0.465
		c-0.988,3.473-1.484,7.07-1.477,10.684v36.602c-0.02,14.449-11.73,26.164-26.183,26.18h-5.59c-1.403-0.031-2.754-0.543-3.82-1.449
		l3.246-12.992c2.554-10.215-3.657-20.563-13.871-23.117C164.758,292.859,163.203,292.668,161.645,292.672 M66.336,356.215h45.262
		l-5.086,12.707H66.336V356.215z M320.512,368.922h-40.176l-23.191-57.973l5.949-41.727c15.594-7.27,25.586-22.891,25.645-40.098
		c-0.012-6.664-1.543-13.238-4.477-19.227l36.25-38.277V368.922z M274.672,220.027c3.574,11.727-0.023,24.465-9.207,32.594
		l3.859-26.953L274.672,220.027z M363.113,108.156L258.707,218.402c-0.902,0.957-1.488,2.164-1.676,3.465l-6.035,42.129
		c-0.016,0.098-0.027,0.207-0.035,0.316l-6.637,46.523c-0.156,1.098-0.023,2.223,0.391,3.254l21.93,54.832H120.203l5.082-12.707
		h30.004c8.606,0.004,16.141-5.773,18.371-14.082c2.242,0.902,4.637,1.371,7.055,1.371h5.59
		c21.468-0.023,38.867-17.422,38.89-38.887v-36.602c-0.007-2.527,0.355-5.043,1.07-7.465c0.039-0.133,0.074-0.273,0.105-0.418
		c1.266-4.023,3.496-7.672,6.496-10.633c7.316-7.273,11.418-17.172,11.391-27.492v-17.535c-0.016-5.105-1-10.16-2.898-14.895
		c-6.027-14.551-20.242-24.027-35.988-23.996h-50.074c-14.031,0.016-25.402,11.387-25.418,25.418h-27.703l-78.453-82.859
		c-5.293-5.547-8.239-12.922-8.223-20.586c0.02-16.559,13.438-29.977,29.996-29.996h54.27c7.91,9.707,20.461,14.367,32.789,12.179
		c0.75,2.149,1.629,4.25,2.633,6.293l3.472,6.946H59.98c-3.507,0-6.355,2.843-6.355,6.351c0,1.817,0.777,3.547,2.133,4.754
		l57.191,50.832c1.164,1.035,2.664,1.606,4.223,1.606h152.504c1.559,0,3.059-0.571,4.223-1.606l57.191-50.832
		c2.621-2.332,2.859-6.348,0.527-8.973c-1.207-1.355-2.938-2.132-4.75-2.132h-68.398l1.34-0.672c3.141-1.571,4.41-5.391,2.84-8.532
		c-0.141-0.281-0.301-0.546-0.477-0.8l-10.816-15.414h89.996c16.547-0.016,29.977,13.382,29.992,29.933
		c0.008,7.688-2.938,15.086-8.234,20.664H363.113z"/>
</g>
</svg>
