<?xml version="1.0" encoding="utf-8"?>
<!-- Generator: Adobe Illustrator 16.0.0, SVG Export Plug-In . SVG Version: 6.00 Build 0)  -->
<!DOCTYPE svg PUBLIC "-//W3C//DTD SVG 1.1//EN" "http://www.w3.org/Graphics/SVG/1.1/DTD/svg11.dtd">
<svg version="1.1" id="Layer_1" xmlns="http://www.w3.org/2000/svg" xmlns:xlink="http://www.w3.org/1999/xlink" x="0px" y="0px"
	 width="27.347px" height="27.347px" viewBox="0 0 27.347 27.347" enable-background="new 0 0 27.347 27.347" xml:space="preserve">
<rect x="13.217" y="12.762" width="0.912" height="0.911"/>
<rect x="12.306" y="14.585" width="2.735" height="0.912"/>
<g>
	<defs>
		<rect id="SVGID_1_" y="0" width="27.346" height="27.346"/>
	</defs>
	<clipPath id="SVGID_2_">
		<use xlink:href="#SVGID_1_"  overflow="visible"/>
	</clipPath>
	<path clip-path="url(#SVGID_2_)" d="M20.51,26.892c0,0.251,0.204,0.455,0.455,0.455h4.559c0.252,0,0.456-0.204,0.456-0.455v-1.368
		c0.007-1.504-1.207-2.729-2.711-2.735c-0.172-0.001-0.345,0.016-0.515,0.046c-0.223-1.49-1.612-2.519-3.104-2.296
		c-1.188,0.178-2.119,1.109-2.297,2.296c-0.323-0.062-0.656-0.062-0.98,0c-0.223-1.49-1.613-2.519-3.104-2.296
		c-1.188,0.178-2.119,1.109-2.296,2.296c-0.324-0.062-0.657-0.062-0.98,0c-0.224-1.49-1.614-2.519-3.105-2.296
		c-1.187,0.178-2.119,1.109-2.296,2.296c-1.479-0.276-2.901,0.697-3.178,2.177c-0.032,0.169-0.048,0.341-0.047,0.513v1.368
		c0,0.251,0.204,0.455,0.456,0.455h4.558c0.251,0,0.455-0.204,0.455-0.455v-1.368c-0.001-0.152-0.014-0.305-0.041-0.455h0.994
		c-0.026,0.15-0.04,0.303-0.041,0.455v1.368c0,0.251,0.204,0.455,0.456,0.455h4.557c0.252,0,0.456-0.204,0.456-0.455v-1.368
		c-0.001-0.152-0.014-0.305-0.041-0.455h0.994c-0.026,0.15-0.04,0.303-0.041,0.455v1.368c0,0.251,0.204,0.455,0.456,0.455h4.558
		c0.252,0,0.456-0.204,0.456-0.455v-1.368c-0.001-0.152-0.016-0.305-0.041-0.455h0.993c-0.026,0.15-0.04,0.303-0.041,0.455V26.892z
		 M25.067,25.523v0.912h-3.646v-0.912c0-1.007,0.816-1.823,1.823-1.823S25.067,24.517,25.067,25.523 M5.925,26.436H2.279v-0.912
		c0-1.007,0.816-1.823,1.823-1.823c1.007,0,1.823,0.816,1.823,1.823V26.436z M8.118,24.156H6.466
		c-0.238-0.411-0.579-0.752-0.989-0.992c0.039-1.003,0.883-1.784,1.886-1.745c0.947,0.037,1.707,0.797,1.744,1.745
		C8.697,23.404,8.356,23.745,8.118,24.156 M12.306,26.436H8.659v-0.912c0-1.007,0.817-1.823,1.824-1.823
		c1.006,0,1.823,0.816,1.823,1.823V26.436z M14.499,24.156h-1.652c-0.238-0.411-0.579-0.752-0.989-0.992
		c0.039-1.003,0.883-1.784,1.885-1.745c0.948,0.037,1.708,0.797,1.745,1.745C15.078,23.404,14.737,23.745,14.499,24.156
		 M18.688,26.436H15.04v-0.912c0-1.007,0.817-1.823,1.823-1.823c1.007,0,1.824,0.816,1.824,1.823V26.436z M19.229,24.156
		c-0.238-0.411-0.579-0.752-0.989-0.992c0.039-1.003,0.883-1.784,1.885-1.745c0.948,0.037,1.708,0.797,1.745,1.745
		c-0.41,0.24-0.751,0.581-0.989,0.992H19.229z"/>
	<path clip-path="url(#SVGID_2_)" d="M26.891,0H0.456C0.204,0,0,0.205,0,0.456v1.823c0,0.252,0.204,0.456,0.456,0.456h0.911v12.306
		c0,0.252,0.204,0.456,0.456,0.456h8.374l0.21,1.366h-0.38c-0.252,0-0.456,0.204-0.456,0.456v1.823c0,0.252,0.204,0.456,0.456,0.456
		h7.292c0.252,0,0.456-0.204,0.456-0.456v-1.823c0-0.252-0.204-0.456-0.456-0.456h-0.38l0.21-1.366h8.374
		c0.252,0,0.455-0.204,0.455-0.456V2.735h0.912c0.251,0,0.456-0.204,0.456-0.456V0.456C27.347,0.205,27.142,0,26.891,0
		 M18.559,10.028l-0.228,0.911H9.016l-0.228-0.911H18.559z M16.864,18.687h-6.381v-0.912h6.381V18.687z M11.33,16.863l-0.772-5.013
		h6.23l-0.771,5.013H11.33z M25.068,14.585H17.29l0.421-2.734h0.976c0.21,0,0.392-0.143,0.442-0.346l0.456-1.823
		c0.062-0.244-0.088-0.492-0.332-0.552c-0.036-0.009-0.073-0.014-0.11-0.014h-0.911V7.749c0-0.121-0.049-0.237-0.135-0.323
		l-0.914-0.915c0.09-0.182,0.137-0.382,0.137-0.585c0-0.756-0.612-1.368-1.367-1.368s-1.367,0.612-1.367,1.368
		c0,0.755,0.612,1.367,1.367,1.367c0.203-0.001,0.403-0.048,0.586-0.137l0.781,0.781v1.179h-7.292V7.937l0.782-0.781
		c0.182,0.089,0.382,0.136,0.585,0.137c0.756,0,1.368-0.612,1.368-1.367c0-0.756-0.612-1.368-1.368-1.368
		c-0.755,0-1.367,0.612-1.367,1.368c0.001,0.203,0.048,0.403,0.137,0.585L9.249,7.426C9.163,7.512,9.115,7.627,9.116,7.749v1.367
		H8.204c-0.252,0-0.456,0.204-0.456,0.456c0,0.037,0.005,0.074,0.014,0.11l0.456,1.823c0.05,0.203,0.233,0.346,0.442,0.346h0.976
		l0.421,2.734H2.279V2.735h22.79V14.585z M15.952,6.381c-0.252,0-0.456-0.204-0.456-0.455c0-0.252,0.204-0.456,0.456-0.456
		s0.456,0.204,0.456,0.456C16.408,6.177,16.204,6.381,15.952,6.381 M10.939,5.926c0-0.252,0.204-0.456,0.455-0.456
		c0.252,0,0.456,0.204,0.456,0.456c0,0.251-0.204,0.455-0.456,0.455C11.143,6.381,10.939,6.177,10.939,5.926 M26.435,1.824H0.912
		V0.912h25.522V1.824z"/>
</g>
</svg>
