<?xml version="1.0" encoding="utf-8"?>
<!-- Generator: Adobe Illustrator 16.0.0, SVG Export Plug-In . SVG Version: 6.00 Build 0)  -->
<!DOCTYPE svg PUBLIC "-//W3C//DTD SVG 1.1//EN" "http://www.w3.org/Graphics/SVG/1.1/DTD/svg11.dtd">
<svg version="1.1" id="Layer_1" xmlns="http://www.w3.org/2000/svg" xmlns:xlink="http://www.w3.org/1999/xlink" x="0px" y="0px"
	 width="30.435px" height="30.434px" viewBox="0 0 30.435 30.434" enable-background="new 0 0 30.435 30.434" xml:space="preserve">
<g>
	<defs>
		<rect id="SVGID_1_" width="30.434" height="30.434"/>
	</defs>
	<clipPath id="SVGID_2_">
		<use xlink:href="#SVGID_1_"  overflow="visible"/>
	</clipPath>
	<path clip-path="url(#SVGID_2_)" d="M29.668,26.579l-1.071-3c1.315-1.647,1.685-3.859,0.976-5.844
		c-0.709-1.985-2.396-3.463-4.456-3.904l-2.585-7.236h0.802c2.52-0.003,4.562-2.046,4.564-4.566V1.521
		c0-0.84-0.681-1.522-1.521-1.522c-0.841,0-1.522,0.682-1.522,1.522v0.507c-0.001,0.841-0.682,1.521-1.521,1.522h-3.551
		c-0.768,0-1.415,0.572-1.511,1.333c-0.095,0.762,0.393,1.475,1.137,1.664l0.963,2.695l-8.05,7.282l-4.302-0.269L7.64,16.232
		c-0.01-0.001-0.021-0.001-0.031-0.001c-0.039,0-0.078,0.002-0.116,0.004l-2.185-5.583h1.286C7.434,10.65,8.115,9.97,8.116,9.13
		V8.996C8.113,8.239,7.558,7.6,6.81,7.489L1.737,6.764C1.3,6.701,0.858,6.833,0.525,7.122C0.192,7.41,0,7.83,0,8.271v0.86
		c0.001,0.84,0.682,1.52,1.522,1.521H2.19l2.687,6.866c-0.629,0.756-0.915,1.74-0.79,2.716c0.125,0.977,0.65,1.856,1.45,2.431
		L1.43,26.379c-0.803,0.05-1.429,0.714-1.43,1.519v1.015c0.001,0.84,0.682,1.521,1.522,1.521h1.014
		c0.841-0.001,1.521-0.682,1.522-1.521h22.319c0.001,0.84,0.681,1.521,1.521,1.521h1.016c0.84-0.001,1.52-0.682,1.521-1.521v-1.015
		C30.434,27.352,30.142,26.848,29.668,26.579 M27.688,16.478c1.429,1.663,1.626,4.056,0.49,5.931L25.533,15
		C26.368,15.296,27.111,15.805,27.688,16.478 M28.519,26.376h-0.621c-0.106,0-0.214,0.011-0.317,0.034L20.502,6.594h0.952
		L28.519,26.376z M25.806,24.459c-2.247,0.943-4.847,0.155-6.192-1.876l4.243-0.265c0.379-0.003,0.753-0.091,1.094-0.257
		L25.806,24.459z M22.056,13.961c-1.535,0.474-2.822,1.533-3.583,2.948l-2.073-0.13l5.017-4.61L22.056,13.961z M22.397,14.917
		l0.817,2.288l-3.604-0.226C20.271,15.989,21.257,15.258,22.397,14.917 M19.782,4.565h3.551c1.399-0.002,2.535-1.136,2.536-2.537
		V1.521c0-0.28,0.228-0.507,0.508-0.507s0.507,0.227,0.507,0.507v0.507c-0.002,1.96-1.591,3.549-3.551,3.551h-3.551
		c-0.28,0-0.508-0.227-0.508-0.507C19.274,4.792,19.502,4.565,19.782,4.565 M20.74,10.276l0.306,0.856l-6.05,5.559l-1.261-0.078
		L20.74,10.276z M1.015,9.13v-0.86c0-0.279,0.225-0.505,0.505-0.507c0.024,0,0.049,0.002,0.074,0.005l5.072,0.725
		c0.249,0.037,0.435,0.25,0.436,0.502V9.13C7.101,9.41,6.874,9.637,6.594,9.637H1.522C1.242,9.637,1.015,9.41,1.015,9.13
		 M4.219,10.651l2.256,5.767c-0.278,0.093-0.543,0.222-0.79,0.381l-2.406-6.148H4.219z M5.073,19.783
		c0.001-1.396,1.127-2.527,2.521-2.536l15.992,0.999l1.019,2.851c-0.231,0.136-0.496,0.207-0.765,0.207c-0.01,0-0.021,0-0.031,0.001
		L9.496,22.2l-0.758-1.398c0.495-0.55,0.521-1.376,0.063-1.957c-0.458-0.58-1.267-0.746-1.917-0.393
		c-0.65,0.353-0.951,1.122-0.713,1.821c0.238,0.7,0.945,1.127,1.675,1.013l0.534,0.983l-0.424,0.026l-0.362,0.023
		C6.2,22.308,5.074,21.176,5.073,19.783 M7.609,20.29c-0.205,0-0.39-0.124-0.469-0.313c-0.078-0.189-0.035-0.407,0.11-0.553
		c0.145-0.145,0.363-0.188,0.553-0.11c0.189,0.079,0.313,0.265,0.313,0.47C8.116,20.062,7.889,20.29,7.609,20.29 M7.609,23.333
		c0.01,0,0.021,0,0.031-0.001l0.14-0.008l-4.011,3.685c-0.211-0.294-0.521-0.502-0.872-0.589l3.608-3.263
		C6.861,23.273,7.234,23.333,7.609,23.333 M3.044,28.913c-0.001,0.279-0.228,0.507-0.508,0.507H1.522
		c-0.28,0-0.507-0.228-0.507-0.507v-1.015c0-0.279,0.227-0.507,0.507-0.508h1.014c0.28,0.001,0.507,0.229,0.508,0.508V28.913z
		 M4.3,27.898l4.76-4.374l0.52,0.959l-0.446,0.242c-0.119,0.063-0.209,0.172-0.248,0.302s-0.025,0.27,0.04,0.389
		c0.064,0.118,0.173,0.207,0.304,0.245c0.129,0.038,0.269,0.021,0.388-0.043l1.783-0.968c0.12-0.063,0.209-0.172,0.248-0.302
		s0.025-0.269-0.039-0.388c-0.065-0.119-0.174-0.208-0.304-0.246c-0.13-0.038-0.27-0.022-0.388,0.044L10.472,24l-0.443-0.817
		l8.446-0.527c1.473,2.75,4.785,3.941,7.672,2.761l0.554,1.547c-0.21,0.267-0.324,0.596-0.323,0.936H4.3z M29.42,28.913
		c0,0.279-0.228,0.507-0.507,0.507h-1.016c-0.279,0-0.507-0.228-0.507-0.507v-1.015c0-0.279,0.228-0.507,0.507-0.508h1.016
		c0.279,0.001,0.507,0.229,0.507,0.508V28.913z"/>
</g>
</svg>
