<?xml version="1.0" encoding="utf-8"?>
<!-- Generator: Adobe Illustrator 16.0.0, SVG Export Plug-In . SVG Version: 6.00 Build 0)  -->
<!DOCTYPE svg PUBLIC "-//W3C//DTD SVG 1.1//EN" "http://www.w3.org/Graphics/SVG/1.1/DTD/svg11.dtd">
<svg version="1.1" id="Layer_1" xmlns="http://www.w3.org/2000/svg" xmlns:xlink="http://www.w3.org/1999/xlink" x="0px" y="0px"
	 width="35.124px" height="35.124px" viewBox="0 0 35.124 35.124" enable-background="new 0 0 35.124 35.124" xml:space="preserve">
<g>
	<defs>
		<rect id="SVGID_1_" y="0" width="35.124" height="35.124"/>
	</defs>
	<clipPath id="SVGID_2_">
		<use xlink:href="#SVGID_1_"  overflow="visible"/>
	</clipPath>
	<path clip-path="url(#SVGID_2_)" d="M18.147,31.611V30.44c-0.004-1.064-0.726-1.993-1.756-2.259v-2.377
		c0.001-1.313-0.549-2.566-1.516-3.454l-4.923-4.501c-0.222-0.205-0.253-0.545-0.07-0.785l0.655-0.837
		c0.147-0.198,0.402-0.282,0.638-0.211l3.571,1.071c1.138,0.337,2.348-0.232,2.815-1.323l0.645-1.498
		c0.395-0.922,0.16-1.993-0.585-2.664l-2.74-2.464l1.124-1.399c0.194-0.242,0.166-0.595-0.065-0.802
		c-1.607-1.447-3.691-2.249-5.854-2.254H9.952c-4.85,0-8.781,3.931-8.781,8.781v7.024c0,0.323,0.262,0.585,0.585,0.585
		c0.323,0,0.586-0.262,0.586-0.585v-7.024c0.001-2.536,1.265-4.904,3.371-6.316C5.675,7.511,5.751,7.877,5.93,8.195l0.094,0.158
		c-1.586,1.221-2.514,3.11-2.512,5.111v12.878c0,0.324,0.263,0.586,0.586,0.586c0.323,0,0.585-0.262,0.585-0.586V13.464
		c0.003-1.577,0.712-3.07,1.932-4.069l0.486,0.849c0.077,0.135,0.206,0.234,0.356,0.275c0.151,0.04,0.311,0.019,0.446-0.058
		c0.135-0.078,0.234-0.206,0.274-0.356c0.041-0.151,0.02-0.311-0.058-0.446l-1.17-2.026C6.863,7.499,6.836,7.335,6.874,7.18
		C6.912,7.025,7.011,6.892,7.15,6.813c0.138-0.08,0.303-0.1,0.456-0.056c0.153,0.045,0.282,0.15,0.356,0.291l1.17,2.025
		C9.206,9.215,9.335,9.32,9.488,9.364c0.153,0.045,0.318,0.024,0.456-0.055c0.138-0.08,0.237-0.213,0.276-0.368
		c0.037-0.155,0.01-0.318-0.075-0.453L8.974,6.462C8.87,6.281,8.733,6.12,8.57,5.988c0.455-0.089,0.918-0.134,1.382-0.134h0.093
		c1.696-0.004,3.344,0.558,4.684,1.598l-0.744,0.925c-0.785-0.611-1.7-1.032-2.675-1.229c-0.324-0.064-0.637,0.147-0.7,0.471
		c-0.063,0.323,0.148,0.636,0.471,0.699c0.931,0.187,1.794,0.619,2.5,1.253l3.249,2.927c0.371,0.335,0.489,0.869,0.293,1.329
		l-0.316,0.737l-1.388-0.462c-0.307-0.104-0.64,0.062-0.743,0.369c-0.104,0.307,0.061,0.64,0.369,0.743l1.247,0.416
		c-0.302,0.35-0.781,0.49-1.224,0.357l-3.565-1.072c-0.708-0.212-1.473,0.04-1.914,0.633L8.95,16.391
		c-0.538,0.72-0.444,1.732,0.217,2.341l4.912,4.508c0.72,0.659,1.134,1.589,1.141,2.564v2.295h-2.962
		c-0.163-1.813-1.086-3.472-2.54-4.567c-0.125-0.093-0.281-0.133-0.434-0.11c-0.154,0.021-0.293,0.104-0.386,0.228
		c-0.093,0.125-0.133,0.281-0.111,0.436c0.022,0.153,0.104,0.292,0.228,0.385c1.159,0.875,1.908,2.187,2.072,3.63H4.098
		c-1.293,0-2.342,1.048-2.342,2.341v1.171C0.786,31.611,0,32.397,0,33.367v1.172c0,0.322,0.262,0.585,0.585,0.585
		c0.324,0,0.586-0.263,0.586-0.585v-1.172c0-0.322,0.262-0.585,0.585-0.585h16.392c0.322,0,0.586,0.263,0.586,0.585v1.172
		c0,0.322,0.262,0.585,0.585,0.585c0.322,0,0.585-0.263,0.585-0.585v-1.172C19.903,32.397,19.117,31.611,18.147,31.611
		 M2.927,31.611V30.44c0-0.646,0.524-1.171,1.171-1.171h11.708c0.646,0,1.17,0.524,1.17,1.171v1.171H2.927z"/>
	<path clip-path="url(#SVGID_2_)" d="M33.367,25.757v-0.585c0-0.97-0.786-1.757-1.756-1.757h-0.088l-1.563-9.366
		c0.869-0.079,1.548-0.785,1.594-1.657s-0.556-1.644-1.411-1.814l0.72-1.68c0.236-0.54,0.184-1.163-0.136-1.657
		c-0.32-0.495-0.867-0.796-1.457-0.802h-2.341V4.683c0-0.323-0.263-0.586-0.586-0.586h-1.171v-1.17h1.171
		c0.323,0,0.586-0.263,0.586-0.586V1.17H28.1v1.171c0,0.323,0.262,0.586,0.585,0.586h1.171v1.17h-1.171
		c-0.323,0-0.585,0.263-0.585,0.586c0,0.323,0.262,0.585,0.585,0.585h1.756c0.323,0,0.586-0.262,0.586-0.585V2.341
		c0-0.323-0.263-0.585-0.586-0.585H29.27V0.585C29.27,0.262,29.007,0,28.685,0h-2.342c-0.323,0-0.586,0.262-0.586,0.585v1.171
		h-1.171c-0.322,0-0.585,0.262-0.585,0.585v2.342c0,0.323,0.263,0.585,0.585,0.585h1.171v1.171c-0.586,0.008-1.13,0.307-1.449,0.798
		c-0.32,0.492-0.373,1.11-0.143,1.649l0.721,1.68c-0.889,0.163-1.508,0.972-1.434,1.871c0.074,0.899,0.817,1.596,1.72,1.612h3.601
		l1.563,9.366h-5.644l1.253-7.516c0.025-0.155-0.013-0.314-0.105-0.441c-0.092-0.128-0.23-0.213-0.387-0.238
		c-0.155-0.025-0.313,0.013-0.44,0.105c-0.127,0.092-0.214,0.231-0.237,0.387l-1.271,7.703h-0.088c-0.97,0-1.756,0.787-1.756,1.757
		v0.585c-0.97,0-1.756,0.786-1.756,1.756v1.171c0,0.323,0.262,0.585,0.585,0.585h9.367c0.323,0,0.585-0.262,0.585-0.585
		s-0.262-0.585-0.585-0.585h-8.781v-0.586c0-0.323,0.262-0.585,0.585-0.585h11.708c0.323,0,0.585,0.262,0.585,0.585v0.586h-1.756
		c-0.323,0-0.585,0.262-0.585,0.585s0.262,0.585,0.585,0.585h2.342c0.323,0,0.585-0.262,0.585-0.585v-1.171
		C35.123,26.543,34.337,25.757,33.367,25.757 M25.289,7.873c0.104-0.158,0.279-0.256,0.468-0.263h3.513
		c0.195,0.001,0.378,0.1,0.485,0.263c0.109,0.163,0.128,0.37,0.054,0.551l-0.926,2.113h-2.739l-0.907-2.113
		C25.161,8.243,25.181,8.036,25.289,7.873 M24.586,12.293c0-0.323,0.263-0.585,0.586-0.585h4.684c0.323,0,0.585,0.262,0.585,0.585
		c0,0.323-0.262,0.585-0.585,0.585h-4.684C24.849,12.878,24.586,12.616,24.586,12.293 M22.83,25.757v-0.585
		c0-0.324,0.263-0.586,0.585-0.586h8.196c0.323,0,0.585,0.262,0.585,0.586v0.585H22.83z"/>
</g>
</svg>
