<?xml version="1.0" encoding="utf-8"?>
<!-- Generator: Adobe Illustrator 16.0.0, SVG Export Plug-In . SVG Version: 6.00 Build 0)  -->
<!DOCTYPE svg PUBLIC "-//W3C//DTD SVG 1.1//EN" "http://www.w3.org/Graphics/SVG/1.1/DTD/svg11.dtd">
<svg version="1.1" id="Layer_1" xmlns="http://www.w3.org/2000/svg" xmlns:xlink="http://www.w3.org/1999/xlink" x="0px" y="0px"
	 width="512px" height="460px" viewBox="0 0 512 460" enable-background="new 0 0 512 460" xml:space="preserve">
<g>
	<defs>
		<rect id="SVGID_1_" width="512" height="460"/>
	</defs>
	<clipPath id="SVGID_2_">
		<use xlink:href="#SVGID_1_"  overflow="visible"/>
	</clipPath>
	<path clip-path="url(#SVGID_2_)" d="M346,70c0-5.52-4.48-10-10-10s-10,4.48-10,10s4.48,10,10,10S346,75.52,346,70"/>
	<path clip-path="url(#SVGID_2_)" d="M378.762,3.125C376.874,1.13,374.247,0,371.5,0h-231c-2.747,0-5.374,1.13-7.262,3.125
		c-1.888,1.995-2.873,4.679-2.723,7.422c6.116,111.479-43.225,176.058-54.77,216.553c-20.875,73.01,13.179,167.31,60.894,229.017
		c1.894,2.449,4.815,3.883,7.911,3.883h222.91c3.095,0,6.016-1.434,7.91-3.882c45.415-58.715,80.981-156.876,60.813-228.934
		c-11.353-40.718-60.843-104.642-54.697-216.637C381.636,7.805,380.651,5.121,378.762,3.125 M398.254,188.477
		c1.213,2.544,2.413,5.027,3.593,7.463c4.695,9.695,8.895,18.387,12.229,27.717C356.916,245.172,303.052,291.658,256,327.466
		c-47.254-35.958-100.945-82.313-158.119-103.823c3.37-9.319,7.566-17.998,12.255-27.678c1.185-2.445,2.39-4.937,3.607-7.489
		C157.467,209.124,206.421,220,256,220C305.578,220,354.531,209.124,398.254,188.477 M92.479,242.985
		C146.632,263.776,197.937,308.571,246,344.973V440h-96.493C97.999,371.144,82.628,293.008,92.479,242.985 M362.486,440H266v-95.027
		c48.404-36.666,99.392-81.161,153.361-101.928C431.252,306.242,400.246,388.969,362.486,440 M387.548,164.15
		c0.794,2.012,1.626,4.041,2.487,6.093C348.891,189.734,302.758,200,256,200s-92.893-10.266-134.037-29.757
		c0.851-2.032,1.68-4.051,2.478-6.07c18.75-47.49,27.636-95.94,26.461-144.172h210.194
		C359.922,68.214,368.805,116.654,387.548,164.15"/>
	<path clip-path="url(#SVGID_2_)" d="M349.526,107.725c-1.163-5.398-6.484-8.836-11.882-7.67c-5.398,1.163-8.833,6.482-7.67,11.881
		c3.018,14.007,6.874,28.214,11.462,42.227c1.717,5.24,7.357,8.113,12.616,6.391c5.249-1.719,8.11-7.367,6.392-12.616
		C356.07,134.583,352.396,121.054,349.526,107.725"/>
	<path clip-path="url(#SVGID_2_)" d="M502,80h-61.858l22.93-22.929c3.904-3.905,3.904-10.237,0-14.143
		c-3.905-3.906-10.237-3.905-14.144,0l-40,40c-3.904,3.905-3.904,10.237,0,14.143l40,40c3.905,3.905,10.237,3.905,14.144,0
		c3.904-3.905,3.904-10.237,0-14.143L440.142,100H502c5.523,0,10-4.477,10-10S507.523,80,502,80"/>
	<path clip-path="url(#SVGID_2_)" d="M10,100h61.858l-22.929,22.929c-3.905,3.905-3.905,10.237,0,14.143
		c3.905,3.905,10.237,3.905,14.143,0l40-40c3.905-3.905,3.905-10.237,0-14.143l-40-40c-3.905-3.905-10.237-3.905-14.143,0
		c-3.906,3.905-3.905,10.237,0,14.143L71.858,80H10C4.477,80,0,84.477,0,90S4.477,100,10,100"/>
</g>
</svg>
