<?xml version="1.0" encoding="utf-8"?>
<!-- Generator: Adobe Illustrator 16.0.0, SVG Export Plug-In . SVG Version: 6.00 Build 0)  -->
<!DOCTYPE svg PUBLIC "-//W3C//DTD SVG 1.1//EN" "http://www.w3.org/Graphics/SVG/1.1/DTD/svg11.dtd">
<svg version="1.1" id="Layer_1" xmlns="http://www.w3.org/2000/svg" xmlns:xlink="http://www.w3.org/1999/xlink" x="0px" y="0px"
	 width="361px" height="365px" viewBox="0 0 361 365" enable-background="new 0 0 361 365" xml:space="preserve">
<g>
	<defs>
		<rect id="SVGID_1_" width="361" height="365"/>
	</defs>
	<clipPath id="SVGID_2_">
		<use xlink:href="#SVGID_1_"  overflow="visible"/>
	</clipPath>
	<path clip-path="url(#SVGID_2_)" d="M298.301,217.746c-1.258,0.031-2.406-0.52-3.137-1.504l-2.141-2.91
		c-4.586-6.215-13.195-8.172-20.016-4.559l-3.188,1.684c-1.094,0.582-2.395,0.582-3.484,0l-3.188-1.684
		c-6.837-3.625-15.438-1.656-20.012,4.551l-2.148,2.91c-0.73,0.992-1.941,1.566-3.129,1.508l-3.621-0.133
		c-7.762-0.171-14.574,5.09-16.031,12.797l-0.664,3.547c-0.234,1.211-1.047,2.235-2.172,2.727l-3.31,1.434
		c-7.089,3.078-10.917,11.031-8.913,18.492l0.938,3.496c0.316,1.188,0.027,2.453-0.77,3.383l-2.371,2.754
		c-5.105,5.938-5.105,14.559,0,20.504l2.371,2.746c0.805,0.934,1.09,2.203,0.77,3.387l-0.938,3.484
		c-2.035,7.586,1.715,15.367,8.913,18.5l3.31,1.434c1.125,0.492,1.94,1.512,2.172,2.723l0.664,3.551
		c1.453,7.707,8.004,13.086,16.031,12.801l3.625-0.133c1.148-0.086,2.395,0.516,3.125,1.504l2.145,2.91
		c3.035,4.125,7.836,6.375,12.715,6.375c2.488,0,4.996-0.59,7.301-1.809l3.191-1.684c1.094-0.582,2.398-0.578,3.484,0l3.188,1.684
		c6.824,3.625,15.434,1.664,20.016-4.559l2.137-2.902c0.73-0.996,1.871-1.578,3.133-1.508l3.617,0.133
		c7.691,0.137,14.578-5.094,16.031-12.801l0.668-3.543c0.234-1.215,1.043-2.234,2.172-2.727l3.305-1.434
		c7.086-3.078,10.922-11.027,8.918-18.492l-0.938-3.492c-0.316-1.188-0.031-2.452,0.773-3.383l2.371-2.754
		c5.109-5.942,5.109-14.563,0-20.5l-2.371-2.75c-0.797-0.93-1.09-2.203-0.77-3.383l0.938-3.488
		c2.035-7.582-1.715-15.363-8.914-18.496l-3.309-1.434c-1.129-0.492-1.941-1.508-2.172-2.727l-0.664-3.543
		c-1.43-7.578-8.238-13.059-16.031-12.801L298.301,217.746z M306.16,232.629l0.668,3.547c0.965,5.121,4.391,9.43,9.18,11.508
		l3.301,1.434c1.703,0.742,2.59,2.586,2.113,4.371l-0.938,3.492c-1.352,5.031-0.125,10.383,3.262,14.328l2.367,2.75
		c1.211,1.402,1.211,3.449,0,4.852l-2.367,2.75c-3.395,3.949-4.617,9.305-3.262,14.328l0.938,3.492
		c0.473,1.762-0.434,3.648-2.113,4.375l-3.305,1.434c-4.785,2.074-8.215,6.375-9.188,11.5l-0.668,3.555
		c-0.337,1.793-2.031,3.137-3.789,3.023l-3.621-0.133c-5.211-0.18-10.145,2.191-13.242,6.383l-2.133,2.906
		c-1.094,1.473-3.129,1.93-4.742,1.078l-3.184-1.691c-4.617-2.441-10.117-2.441-14.727,0l-3.191,1.691
		c-1.625,0.848-3.652,0.391-4.738-1.078l-2.145-2.91c-2.969-4.035-7.66-6.391-12.633-6.391c-0.199,0-0.391,0-0.598,0.004
		l-3.621,0.133c-1.781,0.215-3.457-1.23-3.793-3.023l-0.672-3.551c-0.965-5.125-4.398-9.426-9.18-11.504l-3.301-1.434
		c-1.703-0.742-2.594-2.586-2.113-4.375l0.938-3.484c1.352-5.027,0.133-10.387-3.266-14.336l-2.363-2.746
		c-1.207-1.402-1.211-3.449,0-4.855l2.375-2.754c3.391-3.945,4.617-9.305,3.262-14.32l-0.938-3.5
		c-0.473-1.762,0.43-3.641,2.105-4.371l3.305-1.434c4.785-2.078,8.215-6.379,9.188-11.504l0.664-3.547
		c0.352-1.824,1.832-3.168,3.801-3.027l3.617,0.129c5.164,0.145,10.152-2.195,13.234-6.375l2.148-2.909
		c1.086-1.466,3.121-1.927,4.734-1.075l3.188,1.684c4.613,2.441,10.117,2.438,14.723,0l3.188-1.691
		c1.617-0.844,3.648-0.391,4.738,1.083l2.145,2.909c3.082,4.188,8.008,6.563,13.234,6.383l3.625-0.133
		C304.246,229.52,305.82,230.84,306.16,232.629"/>
	<rect x="294" y="272" clip-path="url(#SVGID_2_)" width="12" height="12"/>
	<rect x="234" y="272" clip-path="url(#SVGID_2_)" width="12" height="12"/>
	<path clip-path="url(#SVGID_2_)" d="M282,278c0,6.629-5.371,12-12,12s-12-5.371-12-12s5.371-12,12-12S282,271.371,282,278"/>
	<rect x="264" y="242" clip-path="url(#SVGID_2_)" width="12" height="12"/>
	<rect x="264" y="302" clip-path="url(#SVGID_2_)" width="12" height="12"/>
	
		<rect x="285.149" y="250.786" transform="matrix(-0.7071 0.7071 -0.7071 -0.7071 678.596 232.4866)" clip-path="url(#SVGID_2_)" width="11.999" height="11.999"/>
	
		<rect x="242.723" y="293.212" transform="matrix(-0.7071 0.7071 -0.7071 -0.7071 636.1702 334.9116)" clip-path="url(#SVGID_2_)" width="11.999" height="11.999"/>
	
		<rect x="242.727" y="250.786" transform="matrix(-0.7069 0.7073 -0.7073 -0.7069 606.1753 262.4025)" clip-path="url(#SVGID_2_)" width="11.996" height="11.999"/>
</g>
<g>
	<defs>
		<rect id="SVGID_3_" width="361" height="365"/>
	</defs>
	<clipPath id="SVGID_4_">
		<use xlink:href="#SVGID_3_"  overflow="visible"/>
	</clipPath>
	
		<rect x="285.149" y="293.215" transform="matrix(-0.7071 0.7071 -0.7071 -0.7071 708.5983 304.9186)" clip-path="url(#SVGID_4_)" width="11.999" height="11.999"/>
	<path clip-path="url(#SVGID_4_)" d="M327.793,107.238c15.227-4.929,26.531-17.687,29.512-33.273
		c1.887-9.848,10.16-59.543-12.09-71.168c-20.363-10.633-51.609,16.746-68.43,34.015c-11.434,11.747-15.414,28.692-10.379,44.219
		c2.43,7.5,6.77,13.824,12.223,18.785c-1.309,0.348-2.57,0.637-3.969,1.098c-20.117,6.633-36.18,20.988-45.219,40.418
		c-8.48,18.223-9.516,38.98-3.168,57.613c-0.594,0.66-1.215,1.324-1.785,1.973c-2.242,2.551-4.359,4.957-6.55,6.551
		c-0.032,0.023-0.071,0.043-0.103,0.063c-15.324-23.684-36.047-43.343-56.059-53.215c0.09-0.769,0.223-1.523,0.223-2.316v-7.105
		c6.965-2.485,12-9.083,12-16.895c0-4.625-1.805-8.809-4.68-12c2.879-3.191,4.68-7.375,4.68-12s-1.805-8.809-4.68-12
		c2.879-3.191,4.68-7.375,4.68-12c0-7.812-5.035-14.41-12-16.895V32c0-16.543-13.457-30-30-30h-24C91.457,2,78,15.457,78,32v31.105
		C71.035,65.59,66,72.188,66,80c0,4.625,1.805,8.809,4.68,12C67.801,95.191,66,99.375,66,104s1.805,8.809,4.68,12
		c-2.879,3.191-4.68,7.375-4.68,12c0,7.812,5.035,14.41,12,16.895V152c0,0.773,0.133,1.512,0.227,2.262
		C40.996,172.672,0,225.828,0,272c0,66.434,64.645,90,120,90c33.359,0,63.145-8.227,84.594-23.074
		c1.676,0.82,3.348,1.582,4.961,2.285c3.152,1.375,6.134,2.664,8.371,4.297c2.191,1.594,4.309,4,6.551,6.551
		c4.016,4.555,8.563,9.719,15.188,11.875c2.309,0.75,4.647,1.035,6.977,1.035c4.082,0,8.105-0.879,11.82-1.695
		c3.445-0.758,6.695-1.473,9.617-1.473c2.926,0,6.176,0.715,9.621,1.473c5.824,1.277,12.426,2.73,18.797,0.66
		c6.625-2.156,11.172-7.316,15.188-11.875c2.242-2.551,4.359-4.957,6.551-6.547c2.238-1.625,5.215-2.922,8.371-4.297
		c5.531-2.406,11.801-5.129,15.852-10.684c4-5.504,4.672-12.289,5.254-18.277c0.344-3.449,0.66-6.707,1.531-9.395
		c0.809-2.504,2.418-5.215,4.129-8.09c3.102-5.25,6.629-11.203,6.629-18.281c0-7.086-3.527-13.031-6.637-18.281
		c-1.703-2.875-3.313-5.586-4.129-8.09c-0.875-2.688-1.191-5.938-1.527-9.391c-0.59-5.988-1.25-12.766-5.258-18.273
		c-4.039-5.559-10.313-8.281-15.844-10.691c-3.152-1.375-6.129-2.664-8.371-4.297c-2.191-1.598-4.309-4.004-6.551-6.555
		c-0.285-0.32-0.594-0.652-0.891-0.98c17.738-25.41,18.902-58.977,2.469-85.125c-0.848-1.344-1.7-2.465-2.547-3.641
		c3.645-0.215,7.316-0.762,10.945-1.945L327.793,107.238z M240.312,146.395c7.627-16.391,21.157-28.5,38.099-34.086
		c1.117-0.364,2.156-0.676,3.121-0.942c-12.559,25.621-23.855,53.653-27.625,77.395c-4.595-0.848-9.484-1.266-14.242,0.277
		c-1.234,0.402-2.336,0.996-3.434,1.582C232.453,176.098,233.809,160.375,240.312,146.395 M90,32c0-9.926,8.074-18,18-18h24
		c9.926,0,18,8.074,18,18v30H90V32z M84,74h72c3.305,0,6,2.695,6,6s-2.695,6-6,6H84c-3.305,0-6-2.695-6-6S80.695,74,84,74 M84,98h72
		c3.305,0,6,2.695,6,6s-2.695,6-6,6H84c-3.305,0-6-2.695-6-6S80.695,98,84,98 M78,128c0-3.305,2.695-6,6-6h72c3.305,0,6,2.695,6,6
		s-2.695,6-6,6H84C80.695,134,78,131.305,78,128 M150,151.504H90V146h60V151.504z M120,350c-49.824,0-108-20.43-108-78
		c0-41.27,38.203-90.574,71.605-107.012c1.403,1.34,3.028,2.438,4.805,3.274c-6.574,6.082-13.086,12.437-19.074,19.46l-1.016,1.184
		c-4.113,4.793-9.23,10.766-11.144,17.676c-2.067,7.453,1.078,11.953,3.129,13.973c2.863,2.809,7.109,4.316,11.703,4.316
		c2.043,0,4.164-0.301,6.25-0.918c9.18-2.727,17.148-10.031,23.039-21.145l-10.602-5.62c-3.031,5.714-8.242,13-15.843,15.257
		c-2.809,0.828-5.414,0.258-6.133-0.453c-0.438-0.43-0.063-1.918,0.023-2.207c1.199-4.336,5.18-8.977,8.688-13.066l1.039-1.219
		c7.871-9.246,16.949-17.52,25.836-25.508h25.726c11.528,8.516,27.512,23.25,28.106,30.477c0.066,0.773-0.114,1.008-0.383,1.285
		c-2.313,2.313-3.957,2.441-5.024,2.344c-4.109-0.391-8.531-5.641-9.746-7.434l-9.98,6.652c0.789,1.195,8.066,11.676,18.527,12.715
		c0.508,0.047,1.055,0.078,1.625,0.078c3.602,0,8.375-1.176,13.078-5.879c2.875-2.875,4.207-6.594,3.868-10.758
		c-0.825-9.918-12.043-21.707-21.668-30.102c3.019-0.773,5.738-2.281,7.925-4.367c17.633,8.687,36.637,26.66,50.653,47.883
		c-4.836,2.172-9.871,4.824-13.309,9.547c-4,5.505-4.672,12.289-5.254,18.277c-0.344,3.449-0.66,6.707-1.531,9.395
		c-0.809,2.504-2.418,5.215-4.129,8.09c-3.113,5.25-6.637,11.199-6.637,18.281c0,7.078,3.532,13.031,6.637,18.281
		c1.703,2.875,3.313,5.586,4.129,8.09c0.875,2.688,1.195,5.945,1.531,9.387c0.586,5.988,1.254,12.77,5.254,18.273
		c0.219,0.293,0.492,0.496,0.723,0.773C175.34,343.219,148.746,350,120,350 M311.164,217.164c3.309,2.406,7.039,4.027,10.645,5.602
		c4.531,1.965,8.809,3.828,10.934,6.742c2.086,2.867,2.539,7.496,3.02,12.383c0.383,3.93,0.785,8,2.055,11.921
		c1.227,3.771,3.254,7.196,5.215,10.5c2.559,4.317,4.969,8.384,4.969,12.177s-2.41,7.859-4.961,12.156
		c-1.965,3.313-3.996,6.738-5.223,10.5c-1.27,3.922-1.672,7.996-2.055,11.926c-0.48,4.898-0.938,9.523-3.02,12.387
		c-2.125,2.914-6.402,4.773-10.934,6.75c-3.609,1.566-7.336,3.191-10.645,5.598c-3.258,2.375-5.922,5.395-8.5,8.32
		c-3.281,3.734-6.383,7.254-9.883,8.391c-3.273,1.055-7.762,0.07-12.516-0.973c-3.918-0.859-7.969-1.754-12.191-1.754
		s-8.273,0.891-12.191,1.754c-4.754,1.043-9.254,2.019-12.512,0.973c-3.496-1.137-6.598-4.656-9.883-8.391
		c-2.574-2.926-5.234-5.949-8.496-8.32c-3.304-2.406-7.035-4.027-10.648-5.598c-4.532-1.969-8.809-3.828-10.926-6.746
		c-2.09-2.867-2.539-7.488-3.02-12.383c-0.383-3.938-0.785-8.004-2.055-11.93c-1.227-3.766-3.254-7.191-5.223-10.504
		c-2.551-4.301-4.961-8.371-4.961-12.156c0-3.793,2.41-7.859,4.961-12.164c1.965-3.309,3.992-6.73,5.215-10.5
		c1.273-3.922,1.676-7.996,2.059-11.926c0.48-4.895,0.934-9.523,3.016-12.383c2.125-2.918,6.401-4.777,10.934-6.75
		c3.613-1.566,7.34-3.195,10.645-5.602c3.258-2.375,5.922-5.391,8.5-8.32c3.289-3.73,6.391-7.254,9.883-8.387
		c1.004-0.324,2.105-0.457,3.301-0.457c2.73,0,5.91,0.703,9.223,1.43c3.917,0.855,7.969,1.75,12.191,1.75s8.273-0.887,12.191-1.75
		c4.754-1.047,9.254-2.031,12.512-0.973c3.496,1.133,6.598,4.656,9.883,8.387C305.242,211.773,307.906,214.797,311.164,217.164
		 M301.867,191.73c-1.652-1.078-3.398-2.042-5.379-2.688c-6.371-2.07-12.969-0.617-18.789,0.66
		c-3.445,0.758-6.695,1.473-9.621,1.473c-0.75,0-1.582-0.152-2.375-0.234c3.707-23.829,15.961-53.031,29.18-79.293
		c1.929,1.317,4.723,3.993,8.207,9.547C316.668,142.789,315.977,170.414,301.867,191.73 M301.613,98.66
		c16.992-31.894,33.488-56.722,33.816-57.215l-9.977-6.668c-1.355,2.028-17.996,27.055-35.027,59.172
		c-5.754-3.84-10.316-9.547-12.614-16.621c-3.655-11.277-0.757-23.598,7.567-32.14c19.93-20.465,38.836-32.766,49.637-32.766
		c1.777,0,3.336,0.332,4.637,1.016c8.965,4.683,11.434,29.187,5.863,58.277c-2.16,11.293-10.367,20.531-21.426,24.121l-6.137,1.988
		C312.48,99.59,306.875,99.77,301.613,98.66"/>
</g>
</svg>
