<?xml version="1.0" encoding="utf-8"?>
<!-- Generator: Adobe Illustrator 16.0.0, SVG Export Plug-In . SVG Version: 6.00 Build 0)  -->
<!DOCTYPE svg PUBLIC "-//W3C//DTD SVG 1.1//EN" "http://www.w3.org/Graphics/SVG/1.1/DTD/svg11.dtd">
<svg version="1.1" id="Layer_1" xmlns="http://www.w3.org/2000/svg" xmlns:xlink="http://www.w3.org/1999/xlink" x="0px" y="0px"
	 width="38.512px" height="33.898px" viewBox="0 0 38.512 33.898" enable-background="new 0 0 38.512 33.898" xml:space="preserve">
<g>
	<defs>
		<rect id="SVGID_1_" width="38.511" height="33.898"/>
	</defs>
	<clipPath id="SVGID_2_">
		<use xlink:href="#SVGID_1_"  overflow="visible"/>
	</clipPath>
	<path clip-path="url(#SVGID_2_)" d="M0.564,22.176h5.78c0.312,0,0.565-0.253,0.565-0.563c0-0.313-0.253-0.564-0.565-0.564h-5.78
		C0.253,21.048,0,21.3,0,21.613C0,21.923,0.253,22.176,0.564,22.176"/>
	<path clip-path="url(#SVGID_2_)" d="M37.947,32.74c-0.752-0.009-1.397-0.277-1.938-0.803c-1.492-1.492-3.978-1.492-5.472,0
		c-1.056,1.057-2.816,1.057-3.874,0c-1.493-1.492-3.978-1.493-5.471,0c-0.264,0.263-0.57,0.466-0.91,0.603
		c-0.29,0.117-0.429,0.445-0.313,0.734c0.117,0.289,0.445,0.429,0.735,0.313c0.481-0.193,0.913-0.48,1.286-0.852
		c1.057-1.057,2.818-1.057,3.875,0c1.492,1.492,3.979,1.492,5.47,0c1.058-1.057,2.818-1.057,3.875-0.001
		c0.764,0.743,1.675,1.121,2.736,1.134c0.312,0,0.563-0.252,0.563-0.563S38.258,32.74,37.947,32.74"/>
	<path clip-path="url(#SVGID_2_)" d="M18.243,32.545c-0.348-0.138-0.659-0.342-0.925-0.607c-1.493-1.493-3.978-1.493-5.471,0
		c-1.057,1.056-2.818,1.056-3.875,0c-1.493-1.493-3.978-1.493-5.471,0c-0.517,0.517-1.205,0.802-1.937,0.802
		C0.252,32.74,0,32.993,0,33.303c0,0.313,0.252,0.565,0.564,0.565c1.034,0,2.005-0.403,2.735-1.134c1.057-1.058,2.818-1.058,3.875,0
		c1.492,1.492,3.979,1.492,5.471,0c1.057-1.058,2.818-1.058,3.875,0c0.376,0.376,0.815,0.665,1.307,0.859
		c0.29,0.115,0.618-0.026,0.733-0.316C18.674,32.989,18.533,32.661,18.243,32.545"/>
</g>
<g>
	<defs>
		<rect id="SVGID_3_" width="38.511" height="33.898"/>
	</defs>
	<clipPath id="SVGID_4_">
		<use xlink:href="#SVGID_3_"  overflow="visible"/>
	</clipPath>
	<path clip-path="url(#SVGID_4_)" d="M25.866,28.821c1.452,1.534,4.005,1.465,5.471,0c1.068-1.068,2.807-1.068,3.875,0
		c0.73,0.73,1.702,1.133,2.735,1.133c0.312,0,0.563-0.253,0.563-0.564s-0.252-0.563-0.563-0.563c-0.732,0-1.42-0.286-1.938-0.804
		c-1.509-1.508-3.963-1.508-5.471,0c-1.057,1.058-2.818,1.058-3.875,0c-0.291-0.291-0.62-0.529-0.977-0.712v-5.134h12.26
		c0.312,0,0.563-0.253,0.563-0.563c0-0.313-0.252-0.564-0.563-0.564h-5.25v-1.754c0-1.616-0.73-3.119-2.004-4.122
		c-0.245-0.193-0.601-0.151-0.793,0.094c-0.193,0.244-0.15,0.599,0.094,0.792c1.001,0.788,1.575,1.967,1.575,3.236v1.754h-1.227
		v-1.754c0-1.595-1.297-2.892-2.892-2.892c-1.594,0-2.892,1.297-2.892,2.892v7.646c-0.408-0.065-0.817-0.067-1.227-0.006v-7.64
		c0-2.444,2.249-4.409,4.671-4.081c0.31,0.042,0.593-0.174,0.634-0.483c0.042-0.309-0.174-0.593-0.482-0.635
		c-2.156-0.292-4.401,0.892-5.386,2.833c-0.866-1.707-2.64-2.88-4.683-2.88c-2.892,0-5.246,2.353-5.246,5.246v1.754H8.803
		c-0.312,0-0.564,0.252-0.564,0.564c0,0.311,0.252,0.563,0.564,0.563h4.038v5.127c-0.358,0.18-0.695,0.42-0.994,0.719
		c-1.068,1.068-2.806,1.068-3.875,0c-1.508-1.508-3.962-1.508-5.47,0c-0.518,0.518-1.206,0.804-1.938,0.804
		C0.253,28.826,0,29.078,0,29.389s0.253,0.564,0.564,0.564c1.034,0,2.005-0.403,2.736-1.133c1.068-1.068,2.806-1.068,3.875,0
		c1.508,1.508,3.962,1.508,5.47,0c1.046-1.047,2.829-1.047,3.875,0c1.509,1.508,3.992,1.536,5.471,0
		C23.004,27.767,24.847,27.743,25.866,28.821 M27.451,17.531c0.972,0,1.763,0.792,1.763,1.763v1.754h-3.526v-1.754
		C25.688,18.323,26.479,17.531,27.451,17.531 M19.852,21.048h-3.527v-1.754c0-0.973,0.791-1.764,1.763-1.764
		c0.974,0,1.765,0.792,1.765,1.764V21.048z M16.324,22.176h5.881v1.208h-5.881V22.176z M16.324,24.513h5.881v1.208h-5.881V24.513z
		 M13.97,26.94v-7.646c0-2.271,1.847-4.118,4.117-4.118c2.214,0,4.118,1.904,4.118,4.118v1.754h-1.226v-1.754
		c0-1.595-1.298-2.892-2.893-2.892c-1.594,0-2.891,1.298-2.891,2.892v7.646C14.79,26.875,14.375,26.875,13.97,26.94 M17.318,28.022
		c-0.299-0.299-0.635-0.539-0.994-0.719v-0.454h5.881v0.443c-0.37,0.185-0.711,0.43-1.012,0.729
		C20.125,29.09,18.386,29.09,17.318,28.022"/>
	<path clip-path="url(#SVGID_4_)" d="M7.574,9.335c-1.599,0-2.901-1.302-2.901-2.901s1.302-2.9,2.901-2.9
		c1.6,0,2.901,1.301,2.901,2.9S9.173,9.335,7.574,9.335 M7.574,4.663c-0.977,0-1.772,0.795-1.772,1.772s0.795,1.773,1.772,1.773
		c0.977,0,1.772-0.796,1.772-1.773S8.55,4.663,7.574,4.663"/>
	<path clip-path="url(#SVGID_4_)" d="M7.574,2.326c-0.312,0-0.564-0.253-0.564-0.564V0.594c0-0.312,0.252-0.564,0.564-0.564
		s0.564,0.252,0.564,0.564v1.168C8.138,2.073,7.886,2.326,7.574,2.326"/>
	<path clip-path="url(#SVGID_4_)" d="M7.574,12.84c-0.312,0-0.564-0.253-0.564-0.564v-1.168c0-0.312,0.252-0.564,0.564-0.564
		s0.564,0.252,0.564,0.564v1.168C8.138,12.587,7.886,12.84,7.574,12.84"/>
	<path clip-path="url(#SVGID_4_)" d="M3.871,3.53L3.044,2.704c-0.22-0.22-0.22-0.578,0-0.798c0.22-0.22,0.577-0.22,0.798,0
		l0.826,0.826c0.22,0.221,0.226,0.583,0,0.798C4.432,3.755,4.05,3.694,3.871,3.53"/>
	<path clip-path="url(#SVGID_4_)" d="M11.305,10.964l-0.826-0.826c-0.22-0.22-0.22-0.578,0-0.798c0.22-0.22,0.577-0.22,0.798,0
		l0.826,0.826c0.22,0.221,0.245,0.571,0,0.798C11.862,11.187,11.533,11.182,11.305,10.964"/>
	<path clip-path="url(#SVGID_4_)" d="M2.9,6.999H1.732c-0.312,0-0.564-0.253-0.564-0.564c0-0.312,0.252-0.564,0.564-0.564H2.9
		c0.312,0,0.564,0.252,0.564,0.564C3.465,6.746,3.212,6.999,2.9,6.999"/>
	<path clip-path="url(#SVGID_4_)" d="M13.415,6.999h-1.168c-0.312,0-0.564-0.253-0.564-0.564c0-0.312,0.252-0.564,0.564-0.564h1.168
		c0.311,0,0.564,0.252,0.564,0.564C13.979,6.746,13.726,6.999,13.415,6.999"/>
	<path clip-path="url(#SVGID_4_)" d="M3.044,10.964c-0.232-0.208-0.22-0.577,0-0.798L3.87,9.34c0.22-0.22,0.578-0.22,0.798,0
		c0.22,0.22,0.22,0.578,0,0.798l-0.826,0.826C3.643,11.171,3.243,11.143,3.044,10.964"/>
	<path clip-path="url(#SVGID_4_)" d="M10.479,3.53c-0.224-0.217-0.22-0.578,0-0.798l0.826-0.826c0.22-0.22,0.578-0.22,0.798,0
		c0.22,0.22,0.22,0.578,0,0.798L11.277,3.53C11.101,3.717,10.719,3.761,10.479,3.53"/>
</g>
</svg>
