<?xml version="1.0" encoding="utf-8"?>
<!-- Generator: Adobe Illustrator 16.0.0, SVG Export Plug-In . SVG Version: 6.00 Build 0)  -->
<!DOCTYPE svg PUBLIC "-//W3C//DTD SVG 1.1//EN" "http://www.w3.org/Graphics/SVG/1.1/DTD/svg11.dtd">
<svg version="1.1" id="Layer_1" xmlns="http://www.w3.org/2000/svg" xmlns:xlink="http://www.w3.org/1999/xlink" x="0px" y="0px"
	 width="41.563px" height="21.474px" viewBox="0 0 41.563 21.474" enable-background="new 0 0 41.563 21.474" xml:space="preserve">
<g>
	<defs>
		<rect id="SVGID_1_" width="41.563" height="21.474"/>
	</defs>
	<clipPath id="SVGID_2_">
		<use xlink:href="#SVGID_1_"  overflow="visible"/>
	</clipPath>
	<path clip-path="url(#SVGID_2_)" d="M9.005,14.546c-1.91,0-3.464,1.555-3.464,3.464c0,1.91,1.554,3.464,3.464,3.464
		s3.464-1.554,3.464-3.464C12.469,16.101,10.916,14.546,9.005,14.546 M9.005,20.088c-1.146,0-2.078-0.932-2.078-2.078
		c0-1.146,0.932-2.077,2.078-2.077s2.078,0.932,2.078,2.077C11.083,19.157,10.151,20.088,9.005,20.088"/>
	<path clip-path="url(#SVGID_2_)" d="M18.357,15.932h1.385c0.192,0,0.347-0.155,0.347-0.346v-1.386c0-0.191-0.155-0.347-0.347-0.347
		h-1.385c-0.191,0-0.346,0.155-0.346,0.347v1.386C18.011,15.777,18.166,15.932,18.357,15.932"/>
	<path clip-path="url(#SVGID_2_)" d="M22.514,15.932h1.385c0.192,0,0.347-0.155,0.347-0.346v-1.386c0-0.191-0.154-0.347-0.347-0.347
		h-1.385c-0.191,0-0.347,0.155-0.347,0.347v1.386C22.167,15.777,22.322,15.932,22.514,15.932"/>
	<path clip-path="url(#SVGID_2_)" d="M24.592,13.162h1.385c0.192,0,0.347-0.155,0.347-0.346V11.43c0-0.191-0.154-0.346-0.347-0.346
		h-1.385c-0.191,0-0.347,0.155-0.347,0.346v1.386C24.245,13.006,24.4,13.162,24.592,13.162"/>
	<path clip-path="url(#SVGID_2_)" d="M20.089,11.43v1.385c0,0.191,0.155,0.347,0.346,0.347h1.387c0.19,0,0.346-0.155,0.346-0.347
		V11.43c0-0.191-0.155-0.346-0.346-0.346h-1.387C20.244,11.083,20.089,11.239,20.089,11.43"/>
	<path clip-path="url(#SVGID_2_)" d="M15.933,11.43v1.385c0,0.191,0.155,0.347,0.346,0.347h1.386c0.191,0,0.346-0.155,0.346-0.347
		V11.43c0-0.191-0.155-0.346-0.346-0.346h-1.386C16.087,11.083,15.933,11.239,15.933,11.43"/>
	<path clip-path="url(#SVGID_2_)" d="M40.871,14.546v-4.156c0-0.299-0.191-0.563-0.475-0.658L36.485,8.43
		c-1.704-2.84-4.105-4.609-7.513-5.534l-0.592-2.372C28.303,0.217,28.026,0,27.709,0h-7.62c-0.318,0-0.594,0.217-0.672,0.524
		l-0.693,2.771c0,0.002,0,0.004,0,0.005c-3.723,0.833-6.556,2.49-8.657,5.019c-4.605,0.065-9.374,1.512-9.374,4.15v2.077
		C0.31,14.546,0,14.857,0,15.24v2.771c0,0.382,0.31,0.691,0.693,0.691h2.771c0.383,0,0.693-0.31,0.693-0.691
		c0-2.675,2.175-4.85,4.849-4.85c2.673,0,4.849,2.175,4.849,4.85c0,0.382,0.309,0.691,0.692,0.691h12.469
		c0.383,0,0.693-0.31,0.693-0.691c0-2.675,2.176-4.85,4.849-4.85s4.85,2.175,4.85,4.85c0,0.382,0.31,0.691,0.692,0.691h2.771
		c0.383,0,0.691-0.31,0.691-0.691V15.24C41.563,14.857,41.254,14.546,40.871,14.546 M34.755,8.313H31.99l0.394-2.363
		C33.292,6.592,34.078,7.366,34.755,8.313 M24.117,4.063c1.268-0.038,2.651-0.015,4.17,0.088c1.047,0.261,1.981,0.6,2.821,1.024
		l-0.522,3.138h-7.531L24.117,4.063z M20.63,1.385h6.538l0.335,1.337c-2.713-0.137-5.132-0.041-7.281,0.296L20.63,1.385z
		 M22.671,4.135l-1.044,4.178h-9.699C13.767,6.46,16.825,4.567,22.671,4.135 M40.178,17.318h-1.424
		c-0.346-3.113-2.992-5.542-6.196-5.542s-5.85,2.429-6.196,5.542H15.201c-0.345-3.113-2.992-5.542-6.195-5.542
		c-3.204,0-5.85,2.429-6.196,5.542H1.386v-1.385c0.383,0,0.692-0.312,0.692-0.693v-2.078h0.693c0.383,0,0.693-0.311,0.693-0.692
		c0-0.383-0.31-0.693-0.693-0.693h-0.36c0.937-1.017,3.805-2.078,7.98-2.078h25.519l3.575,1.192v0.886h-0.691
		c-0.384,0-0.693,0.311-0.693,0.693c0,0.382,0.31,0.692,0.693,0.692h0.691v2.078c0,0.382,0.311,0.693,0.693,0.693V17.318z"/>
	<path clip-path="url(#SVGID_2_)" d="M32.558,14.546c-1.91,0-3.464,1.555-3.464,3.464c0,1.91,1.554,3.464,3.464,3.464
		s3.464-1.554,3.464-3.464C36.021,16.101,34.468,14.546,32.558,14.546 M32.558,20.088c-1.146,0-2.078-0.932-2.078-2.078
		c0-1.146,0.933-2.077,2.078-2.077c1.146,0,2.078,0.932,2.078,2.077C34.636,19.157,33.704,20.088,32.558,20.088"/>
</g>
</svg>
