<?xml version="1.0" encoding="utf-8"?>
<!-- Generator: Adobe Illustrator 16.0.0, SVG Export Plug-In . SVG Version: 6.00 Build 0)  -->
<!DOCTYPE svg PUBLIC "-//W3C//DTD SVG 1.1//EN" "http://www.w3.org/Graphics/SVG/1.1/DTD/svg11.dtd">
<svg version="1.1" id="Layer_1" xmlns="http://www.w3.org/2000/svg" xmlns:xlink="http://www.w3.org/1999/xlink" x="0px" y="0px"
	 width="24.64px" height="35.412px" viewBox="0 0 24.64 35.412" enable-background="new 0 0 24.64 35.412" xml:space="preserve">
<g>
	<defs>
		<rect id="SVGID_1_" y="0" width="24.64" height="35.412"/>
	</defs>
	<clipPath id="SVGID_2_">
		<use xlink:href="#SVGID_1_"  overflow="visible"/>
	</clipPath>
	<path clip-path="url(#SVGID_2_)" d="M1.946,35.412c-0.228,0-0.412-0.185-0.412-0.412v-6.241c0-0.227,0.184-0.412,0.412-0.412
		c0.227,0,0.411,0.186,0.411,0.412v5.829h19.924V21.292H2.357v1.79c0,0.228-0.184,0.412-0.411,0.412
		c-0.228,0-0.412-0.185-0.412-0.412v-1.79H0.411C0.184,21.292,0,21.108,0,20.88v-3.023c0-0.227,0.184-0.412,0.411-0.412h4.404
		v-2.959c0-2.218,1.233-4.217,3.215-5.217c0.154-0.078,0.312-0.148,0.473-0.212l0.35-0.138l-0.214-0.31
		c-0.65-0.946-0.994-2.08-0.994-3.279C7.646,2.391,9.742,0,12.319,0s4.674,2.391,4.674,5.33c0,1.199-0.344,2.333-0.994,3.279
		l-0.214,0.31l0.351,0.138c0.16,0.064,0.317,0.134,0.471,0.211c1.984,1.001,3.218,3,3.218,5.218v2.959h4.403
		c0.227,0,0.411,0.186,0.412,0.413v3.022c0,0.228-0.185,0.412-0.412,0.412h-1.123V35c0,0.228-0.185,0.412-0.412,0.412H1.946z
		 M0.823,20.468h22.992v-2.2H0.823V20.468z M15.978,14c0.228,0,0.412,0.185,0.412,0.412v3.032h2.609v-2.959
		c0-1.653-0.811-3.197-2.168-4.13l-0.259-0.178l-2.35,3.785c-0.411,0.663-1.123,1.059-1.903,1.059c-0.781,0-1.492-0.396-1.903-1.059
		l-2.35-3.785l-0.259,0.178c-1.357,0.933-2.168,2.477-2.168,4.13v2.959H8.2v-3.032C8.2,14.186,8.385,14,8.613,14
		c0.227,0,0.411,0.185,0.411,0.412v3.032h6.541v-3.032C15.565,14.186,15.75,14,15.978,14 M14.999,9.692
		c-0.6,0.48-1.297,0.796-2.016,0.913l-0.252,0.041v3.642l0.492-0.413c0.117-0.099,0.219-0.216,0.3-0.348l2.31-3.721l-0.371-0.114
		l-0.345-0.095L14.999,9.692z M9.176,9.692L8.805,9.806l2.311,3.723c0.079,0.129,0.181,0.247,0.299,0.346l0.492,0.413v-3.642
		l-0.252-0.041c-0.719-0.117-1.416-0.433-2.016-0.913L9.521,9.597L9.176,9.692z M12.319,0.824c-2.123,0-3.851,2.021-3.851,4.506
		c0,2.485,1.728,4.506,3.851,4.506S16.17,7.815,16.17,5.33C16.17,2.845,14.442,0.824,12.319,0.824"/>
	<path clip-path="url(#SVGID_2_)" d="M12.319,33.209c-2.905,0-5.27-2.363-5.27-5.269c0-2.906,2.365-5.271,5.27-5.271
		s5.27,2.364,5.27,5.271C17.589,30.846,15.225,33.209,12.319,33.209 M12.319,23.495c-2.451,0-4.445,1.994-4.445,4.446
		c0,2.451,1.994,4.444,4.445,4.444s4.445-1.993,4.445-4.444C16.765,25.489,14.771,23.495,12.319,23.495"/>
	<path clip-path="url(#SVGID_2_)" d="M11.7,30.764c-0.227,0-0.411-0.185-0.411-0.411c0-0.228,0.184-0.413,0.411-0.413H12l0.028-0.3
		v-2.229h-0.626c-0.226,0-0.411-0.185-0.411-0.411c0-0.228,0.185-0.412,0.411-0.412h1.678c0.228,0,0.412,0.185,0.412,0.412
		c0,0.212-0.159,0.389-0.371,0.409l-0.27,0.027v2.504h0.527c0.228,0,0.412,0.186,0.412,0.413s-0.185,0.411-0.412,0.411H11.7z"/>
	<path clip-path="url(#SVGID_2_)" d="M12.341,25.581c-0.11,0-0.215-0.046-0.294-0.129c-0.08-0.083-0.121-0.189-0.116-0.301
		c0.01-0.216,0.193-0.393,0.41-0.393c0.22,0,0.412,0.191,0.412,0.411S12.561,25.581,12.341,25.581"/>
	<path clip-path="url(#SVGID_2_)" d="M1.946,26.299c-0.11,0-0.215-0.046-0.295-0.129c-0.08-0.084-0.121-0.19-0.116-0.301
		c0.01-0.213,0.197-0.395,0.411-0.395c0.22,0,0.412,0.193,0.412,0.412C2.357,26.11,2.169,26.299,1.946,26.299"/>
</g>
</svg>
