<?xml version="1.0" encoding="utf-8"?>
<!-- Generator: Adobe Illustrator 16.0.0, SVG Export Plug-In . SVG Version: 6.00 Build 0)  -->
<!DOCTYPE svg PUBLIC "-//W3C//DTD SVG 1.1//EN" "http://www.w3.org/Graphics/SVG/1.1/DTD/svg11.dtd">
<svg version="1.1" id="Layer_1" xmlns="http://www.w3.org/2000/svg" xmlns:xlink="http://www.w3.org/1999/xlink" x="0px" y="0px"
	 width="32.611px" height="32.612px" viewBox="0 0 32.611 32.612" enable-background="new 0 0 32.611 32.612" xml:space="preserve">
<g>
	<defs>
		<rect id="SVGID_1_" width="32.612" height="32.612"/>
	</defs>
	<clipPath id="SVGID_2_">
		<use xlink:href="#SVGID_1_"  overflow="visible"/>
	</clipPath>
	<path clip-path="url(#SVGID_2_)" d="M21.741,13.045h1.087V12.5c0-0.9-0.729-1.63-1.631-1.63c-0.9,0-1.63,0.73-1.63,1.63v0.544
		h1.087V12.5c0-0.3,0.243-0.543,0.543-0.543c0.301,0,0.544,0.243,0.544,0.543V13.045z"/>
	<path clip-path="url(#SVGID_2_)" d="M26.09,12.501c0-0.3,0.242-0.544,0.544-0.544c0.3,0,0.543,0.244,0.543,0.544v0.544h1.087
		v-0.544c0-0.901-0.73-1.631-1.63-1.631c-0.901,0-1.631,0.73-1.631,1.631v0.544h1.087V12.501z"/>
	<path clip-path="url(#SVGID_2_)" d="M26.089,15.219v-1.087h-4.348v1.087c0,1.201,0.973,2.174,2.174,2.174
		S26.089,16.42,26.089,15.219 M22.828,15.219h2.174c0,0.6-0.486,1.087-1.087,1.087C23.315,16.306,22.828,15.819,22.828,15.219"/>
	<path clip-path="url(#SVGID_2_)" d="M32.068,19.024h-5.436v-0.058c1.957-0.901,3.344-2.71,3.707-4.834h0.641
		c0.901,0,1.631-0.73,1.631-1.631c0-0.9-0.729-1.63-1.631-1.63h-0.543V9.24c-0.004-2.46-1.513-4.667-3.805-5.563V2.718
		C26.633,1.217,25.416,0,23.916,0c-1.501,0-2.718,1.217-2.718,2.718v0.959c-2.292,0.896-3.802,3.103-3.806,5.563v1.631H16.85
		c-0.901,0-1.631,0.73-1.631,1.63c0,0.901,0.73,1.631,1.631,1.631h0.643c0.361,2.124,1.749,3.933,3.706,4.834v0.058h-9.432
		L9.784,14.56v-3.146c0-0.3-0.244-0.543-0.544-0.543H7.61V0H5.661C5.024-0.002,4.413,0.25,3.964,0.702
		C3.719,0.949,3.385,1.088,3.036,1.087H0V7.61h3.036c0.637,0.001,1.248-0.251,1.697-0.703C4.978,6.66,5.312,6.521,5.661,6.523h0.862
		v4.348H5.979c-0.3,0-0.543,0.243-0.543,0.543v3.262c-0.001,0.069,0.013,0.137,0.038,0.202l2.714,6.786
		c0.41,1.034,1.412,1.712,2.524,1.708h4.507v8.697c0,0.3,0.243,0.543,0.544,0.543h16.306c0.301,0,0.543-0.243,0.543-0.543V19.567
		C32.611,19.267,32.369,19.024,32.068,19.024 M5.661,5.436C5.024,5.434,4.413,5.687,3.964,6.138
		C3.719,6.385,3.385,6.523,3.036,6.523H1.087V2.174h1.949c0.637,0.002,1.248-0.251,1.697-0.702c0.245-0.247,0.579-0.385,0.928-0.385
		h0.862v4.349H5.661z M25.546,20.111c0,0.899-0.73,1.63-1.63,1.63c-0.901,0-1.631-0.73-1.631-1.63H25.546z M30.98,11.958
		c0.302,0,0.544,0.243,0.544,0.543c0,0.301-0.242,0.544-0.544,0.544h-0.543v-1.087H30.98z M22.285,3.261V2.718
		c0-0.901,0.729-1.631,1.631-1.631c0.899,0,1.63,0.73,1.63,1.631v0.543H22.285z M23.372,4.348h1.087
		c2.49,0.004,4.582,1.874,4.86,4.349h-0.513c-0.899,0-1.63-0.73-1.63-1.631c0-0.3-0.244-0.543-0.544-0.543h-1.087
		c-0.3,0-0.543,0.243-0.543,0.543c0,0.901-0.73,1.631-1.631,1.631h-4.861C18.79,6.222,20.882,4.352,23.372,4.348 M16.85,13.045
		c-0.301,0-0.544-0.243-0.544-0.544c0-0.3,0.243-0.543,0.544-0.543h0.543v1.087H16.85z M18.479,13.045V9.784h4.893
		c1.291-0.002,2.402-0.91,2.663-2.174h0.108c0.26,1.264,1.372,2.172,2.663,2.174h0.544v3.261c0,3.002-2.434,5.435-5.435,5.435
		C20.914,18.48,18.479,16.047,18.479,13.045 M21.198,20.111c0,1.501,1.217,2.718,2.718,2.718c1.5,0,2.717-1.217,2.717-2.718h1.258
		l-2.668,4.892h-2.615l-2.668-4.892H21.198z M22.828,26.089h2.174v3.262h-2.174V26.089z M6.523,11.958h2.174v2.174H6.523V11.958z
		 M9.198,21.259l-2.416-6.041h2.105l2.031,4.569c0.087,0.196,0.281,0.323,0.496,0.323h1.631v2.174h-2.333
		C10.045,22.287,9.444,21.879,9.198,21.259 M31.524,31.525H16.306v-8.696c0-0.301-0.243-0.544-0.543-0.544h-1.631v-2.174h4.569
		l3.04,5.574v4.209c0,0.301,0.243,0.544,0.544,0.544h3.261c0.3,0,0.544-0.243,0.544-0.544v-4.209l3.04-5.574h2.395V31.525z"/>
</g>
</svg>
