<?xml version="1.0" encoding="utf-8"?>
<!-- Generator: Adobe Illustrator 16.0.0, SVG Export Plug-In . SVG Version: 6.00 Build 0)  -->
<!DOCTYPE svg PUBLIC "-//W3C//DTD SVG 1.1//EN" "http://www.w3.org/Graphics/SVG/1.1/DTD/svg11.dtd">
<svg version="1.1" id="Layer_1" xmlns="http://www.w3.org/2000/svg" xmlns:xlink="http://www.w3.org/1999/xlink" x="0px" y="0px"
	 width="30.891px" height="24.368px" viewBox="0 0 30.891 24.368" enable-background="new 0 0 30.891 24.368" xml:space="preserve">
<g>
	<defs>
		<rect id="SVGID_1_" width="30.891" height="24.368"/>
	</defs>
	<clipPath id="SVGID_2_">
		<use xlink:href="#SVGID_1_"  overflow="visible"/>
	</clipPath>
	<path clip-path="url(#SVGID_2_)" fill="#231F20" d="M30.256,8.451c-0.196,0-0.378-0.088-0.499-0.241
		c-3.492-4.409-8.707-6.937-14.309-6.937c-5.605,0-10.822,2.528-14.314,6.937C1.013,8.363,0.831,8.451,0.635,8.451
		c-0.144,0-0.28-0.048-0.394-0.138C0.108,8.208,0.024,8.057,0.005,7.888c-0.02-0.168,0.027-0.334,0.133-0.468
		C3.872,2.705,9.451,0,15.442,0c5.996,0,11.576,2.705,15.312,7.42c0.217,0.275,0.171,0.676-0.104,0.893
		C30.537,8.403,30.4,8.451,30.256,8.451"/>
	<path clip-path="url(#SVGID_2_)" fill="#231F20" d="M5.832,12.558c-0.144,0-0.28-0.048-0.394-0.138
		c-0.133-0.105-0.217-0.256-0.237-0.424c-0.019-0.169,0.028-0.335,0.134-0.469c2.468-3.114,6.152-4.9,10.11-4.9
		c3.959,0,7.646,1.786,10.112,4.9c0.105,0.134,0.153,0.3,0.134,0.469c-0.02,0.168-0.104,0.319-0.236,0.424
		c-0.114,0.09-0.251,0.138-0.395,0.138c-0.196,0-0.378-0.088-0.499-0.241c-2.225-2.808-5.547-4.419-9.114-4.419
		c-3.568,0-6.891,1.611-9.116,4.419C6.209,12.47,6.027,12.558,5.832,12.558"/>
	<path clip-path="url(#SVGID_2_)" fill="#231F20" d="M19.865,16.665c-0.196,0-0.378-0.089-0.5-0.242
		c-0.955-1.206-2.383-1.898-3.919-1.898c-1.537,0-2.966,0.692-3.921,1.898c-0.121,0.153-0.304,0.242-0.499,0.242
		c-0.144,0-0.281-0.049-0.394-0.139c-0.133-0.104-0.218-0.256-0.237-0.424c-0.02-0.169,0.028-0.335,0.133-0.468
		c1.198-1.514,2.99-2.382,4.917-2.382c1.927,0,3.72,0.868,4.918,2.381c0.217,0.274,0.17,0.676-0.104,0.893
		C20.146,16.616,20.009,16.665,19.865,16.665"/>
	<path clip-path="url(#SVGID_2_)" fill="#231F20" d="M15.445,24.368c-1.302,0-2.362-1.06-2.362-2.362c0-1.302,1.06-2.36,2.362-2.36
		c1.303,0,2.362,1.059,2.362,2.36C17.808,23.309,16.748,24.368,15.445,24.368"/>
</g>
</svg>
