<?xml version="1.0" encoding="utf-8"?>
<!-- Generator: Adobe Illustrator 16.0.0, SVG Export Plug-In . SVG Version: 6.00 Build 0)  -->
<!DOCTYPE svg PUBLIC "-//W3C//DTD SVG 1.1//EN" "http://www.w3.org/Graphics/SVG/1.1/DTD/svg11.dtd">
<svg version="1.1" id="Layer_1" xmlns="http://www.w3.org/2000/svg" xmlns:xlink="http://www.w3.org/1999/xlink" x="0px" y="0px"
	 width="43.242px" height="19.466px" viewBox="0 0 43.242 19.466" enable-background="new 0 0 43.242 19.466" xml:space="preserve">
<g>
	<defs>
		<rect id="SVGID_1_" width="43.242" height="19.466"/>
	</defs>
	<clipPath id="SVGID_2_">
		<use xlink:href="#SVGID_1_"  overflow="visible"/>
	</clipPath>
	<path clip-path="url(#SVGID_2_)" d="M34.043,19.466c-1.849,0-3.354-1.505-3.354-3.354c0-1.85,1.505-3.354,3.354-3.354
		s3.354,1.505,3.354,3.354C37.397,17.961,35.892,19.466,34.043,19.466 M34.043,13.62c-1.374,0-2.492,1.118-2.492,2.492
		s1.118,2.492,2.492,2.492s2.492-1.118,2.492-2.492S35.417,13.62,34.043,13.62"/>
	<path clip-path="url(#SVGID_2_)" d="M9.199,19.466c-1.849,0-3.354-1.505-3.354-3.354c0-1.85,1.505-3.354,3.354-3.354
		c1.85,0,3.354,1.505,3.354,3.354C12.553,17.961,11.049,19.466,9.199,19.466 M9.199,13.62c-1.374,0-2.491,1.118-2.491,2.492
		s1.117,2.492,2.491,2.492s2.492-1.118,2.492-2.492S10.573,13.62,9.199,13.62"/>
	<path clip-path="url(#SVGID_2_)" d="M39.889,16.543c-0.237,0-0.431-0.194-0.431-0.431c0-2.986-2.429-5.415-5.415-5.415
		c-2.985,0-5.414,2.429-5.414,5.415c0,0.236-0.193,0.431-0.432,0.431H15.044c-0.237,0-0.43-0.194-0.43-0.431
		c0-2.986-2.429-5.415-5.415-5.415c-2.986,0-5.414,2.429-5.414,5.415c0,0.236-0.194,0.431-0.431,0.431H0.432
		C0.193,16.543,0,16.349,0,16.112v-2.923c0-0.237,0.194-0.432,0.432-0.432h0.3v-2.492c0-2.561,4.937-4.014,9.583-4.081l0.139-0.002
		l0.088-0.107C13.873,2.044,18.746,0,25.023,0c1.479,0,3.059,0.115,4.694,0.341c4.684,0.82,6.714,3.28,8.212,5.818l0.058,0.096
		l4.229,1.41c0.176,0.059,0.295,0.224,0.295,0.409v4.684h0.3c0.237,0,0.431,0.194,0.431,0.432v2.923
		c0,0.236-0.193,0.431-0.431,0.431H39.889z M34.043,9.835c3.202,0,5.885,2.399,6.238,5.579l0.029,0.267h2.07V13.62h-0.3
		c-0.238,0-0.432-0.193-0.432-0.431v-2.492h-1.03c-0.237,0-0.431-0.193-0.431-0.431c0-0.237,0.193-0.431,0.431-0.431h1.03v-1.45
		l-3.978-1.326l-27.01-0.015c-4.511,0-7.588,1.149-8.637,2.288L1.562,9.835h1.061c0.239,0,0.432,0.194,0.432,0.431
		c0,0.238-0.193,0.431-0.432,0.431h-1.03v2.492c0,0.237-0.193,0.431-0.43,0.431h-0.3v2.061h2.07l0.029-0.267
		c0.354-3.18,3.034-5.579,6.238-5.579c3.203,0,5.884,2.399,6.238,5.579l0.029,0.267h12.309l0.029-0.267
		C28.159,12.234,30.841,9.835,34.043,9.835 M24.244,0.865v5.318h7.911l0.041-4.249l-0.192-0.075
		c-0.75-0.294-1.537-0.511-2.406-0.664c-1.616-0.224-3.181-0.337-4.661-0.337L24.244,0.865z M23.062,0.924
		c-4.616,0.328-8.212,1.883-10.993,4.75l-0.493,0.509h11.807V0.901L23.062,0.924z M33.017,6.182h3.93l-0.313-0.467
		c-0.934-1.39-1.928-2.381-3.127-3.116l-0.452-0.277L33.017,6.182z"/>
</g>
</svg>
