<?xml version="1.0" encoding="utf-8"?>
<!-- Generator: Adobe Illustrator 16.0.0, SVG Export Plug-In . SVG Version: 6.00 Build 0)  -->
<!DOCTYPE svg PUBLIC "-//W3C//DTD SVG 1.1//EN" "http://www.w3.org/Graphics/SVG/1.1/DTD/svg11.dtd">
<svg version="1.1" id="Layer_1" xmlns="http://www.w3.org/2000/svg" xmlns:xlink="http://www.w3.org/1999/xlink" x="0px" y="0px"
	 width="384px" height="384.016px" viewBox="0 0 384 384.016" enable-background="new 0 0 384 384.016" xml:space="preserve">
<g>
	<defs>
		<rect id="SVGID_1_" y="0.016" width="384" height="384"/>
	</defs>
	<clipPath id="SVGID_2_">
		<use xlink:href="#SVGID_1_"  overflow="visible"/>
	</clipPath>
	<path clip-path="url(#SVGID_2_)" d="M352.063,384.016h-49.52c-15.68,0-30.91-5.055-42.879-14.238
		c-43.887-33.73-92.93-54.051-149.902-62.145C83.664,303.938,64,280.895,64,254.032c0-10.77,3.152-21.199,9.137-30.129l7.168-10.75
		c0.59-0.879,1.152-1.809,1.695-2.738c8.047-14.094,8.289-31.055,0.609-45.359L0.945,11.778C-1.137,7.871,0.336,3.024,4.238,0.946
		c3.907-2.051,8.739-0.578,10.817,3.308l81.648,153.25c10.289,19.184,9.985,41.938-0.832,60.848
		c-0.703,1.25-1.473,2.465-2.269,3.664l-7.188,10.77C82.223,239.086,80,246.45,80,254.032c0,18.93,13.762,35.168,32,37.762
		c59.777,8.48,111.281,29.84,157.406,65.293c9.168,7.043,20.945,10.93,33.121,10.93h49.52c8.801,0,15.953-7.184,15.953-16
		s-7.184-16-16-16c-17.648,0-34.527-8.258-45.137-22.062c-82.848-107.841-136.031-207.22-162.574-303.826
		c-1.168-4.258,1.328-8.672,5.598-9.824c4.175-1.219,8.656,1.328,9.824,5.598c26,94.578,78.273,192.144,159.84,298.304
		c7.617,9.887,19.746,15.809,32.449,15.809c17.648,0,32,14.352,32,32S369.664,384.016,352.063,384.016"/>
	<path clip-path="url(#SVGID_2_)" d="M152,256.016c-13.23,0-24-10.77-24-24c0-4.414,3.586-8,8-8s8,3.586,8,8s3.586,8,8,8
		s8,3.586,8,8S156.414,256.016,152,256.016"/>
	<path clip-path="url(#SVGID_2_)" d="M328,160.016c-30.879,0-56-25.121-56-56c0-28.191,44.352-93.23,49.406-100.543
		c3.008-4.336,10.18-4.336,13.168,0C339.648,10.786,384,75.825,384,104.016C384,134.895,358.879,160.016,328,160.016 M328,22.352
		c-17.633,26.91-40,66.191-40,81.664c0,22.047,17.953,40,40,40s40-17.953,40-40C368,88.543,345.633,49.262,328,22.352"/>
</g>
</svg>
