<?xml version="1.0" encoding="utf-8"?>
<!-- Generator: Adobe Illustrator 16.0.0, SVG Export Plug-In . SVG Version: 6.00 Build 0)  -->
<!DOCTYPE svg PUBLIC "-//W3C//DTD SVG 1.1//EN" "http://www.w3.org/Graphics/SVG/1.1/DTD/svg11.dtd">
<svg version="1.1" id="Layer_1" xmlns="http://www.w3.org/2000/svg" xmlns:xlink="http://www.w3.org/1999/xlink" x="0px" y="0px"
	 width="36.007px" height="36.006px" viewBox="0 0 36.007 36.006" enable-background="new 0 0 36.007 36.006" xml:space="preserve">
<g>
	<defs>
		<rect id="SVGID_1_" y="0" width="36.006" height="36.006"/>
	</defs>
	<clipPath id="SVGID_2_">
		<use xlink:href="#SVGID_1_"  overflow="visible"/>
	</clipPath>
	<path clip-path="url(#SVGID_2_)" d="M0,33.005c0,1.655,1.077,3.002,2.4,3.002c0.355-0.003,0.703-0.099,1.009-0.279l11.598-3.516
		c-0.003,0.064-0.005,0.129-0.005,0.193c0,1.985,1.346,3.602,3.001,3.602c1.655,0,3.001-1.616,3.001-3.602
		c0-0.064-0.002-0.129-0.005-0.193l11.599,3.516c0.306,0.181,0.653,0.276,1.009,0.279c1.322,0,2.399-1.347,2.399-3.002
		c0-1.612-1.022-2.932-2.301-2.996L26.58,27.85c0.052-0.058,0.103-0.114,0.153-0.171c1.723-1.976,2.672-4.559,2.672-7.275v-2.401
		c0-2.006-0.595-4.26-0.62-4.354c-0.66-2.493-2.37-5.561-4.565-6.407c-0.247-0.096-0.528-0.017-0.69,0.193
		c-0.163,0.211-0.167,0.502-0.011,0.718c0.468,0.649,0.505,1.902,0.496,2.941c-0.489-0.299-0.985-0.578-1.478-0.855
		c-2.533-1.426-4.534-2.552-4.534-5.438c0-1.359,0.457-2.978,1.087-3.849c0.155-0.216,0.151-0.508-0.011-0.718
		c-0.163-0.21-0.444-0.289-0.692-0.194c-2.153,0.831-3.758,3.198-4.542,5.14c-0.026,0.066-0.641,1.634-0.641,3.267
		c0.005,1.028,0.326,2.928,0.637,3.764c0.31,0.858,0.742,1.667,1.281,2.403c-0.92,1.048-1.752,2.375-2.396,3.713
		c-1.191-0.406-2.371-1.307-2.526-2.787c-0.047-0.56-0.046-1.124,0-1.684c0.062-0.701,0.368-2.23,0.574-2.87
		c0.086-0.269-0.026-0.561-0.27-0.702c-0.244-0.142-0.553-0.095-0.744,0.113c-0.468,0.512-1.646,2.591-1.904,3.157
		c-0.774,1.704-1.254,3.243-1.254,5.65c0,2.831,0.948,5.568,2.669,7.705c0.219,0.271,0.448,0.531,0.688,0.779l-7.657,2.321
		C1.023,30.074,0,31.393,0,33.005 M4.634,34.102c0.111-0.354,0.167-0.725,0.167-1.097c0-0.896-0.317-1.702-0.818-2.253l7.004-2.122
		c1.267,1.03,2.741,1.778,4.321,2.194c-0.007,0.017-0.013,0.033-0.02,0.049L4.634,34.102z M18.003,34.806
		c-0.993,0-1.8-1.076-1.8-2.4s0.807-2.401,1.8-2.401c0.993,0,1.8,1.077,1.8,2.401S18.996,34.806,18.003,34.806 M25.587,28.803
		l6.437,1.949c-0.501,0.551-0.818,1.356-0.818,2.253c0,0.372,0.056,0.742,0.167,1.097l-10.284-3.116
		C22.745,30.641,24.29,29.891,25.587,28.803 M25.135,9.307c1.049,1.058,1.995,2.779,2.49,4.65c0.002,0.006,0.042,0.158,0.101,0.411
		c-0.181-0.261-0.375-0.511-0.582-0.751c-0.575-0.655-1.226-1.239-1.938-1.741c0.001-0.12,0.003-0.248,0.004-0.379
		C25.219,10.811,25.23,10.038,25.135,9.307z M14.403,8.444c0-1.395,0.552-2.808,0.556-2.818c0.606-1.503,1.425-2.615,2.224-3.369
		c-0.246,0.826-0.374,1.682-0.38,2.544c0,3.588,2.616,5.061,5.146,6.485c3.075,1.731,6.256,3.522,6.256,9.118
		c0,2.426-0.844,4.73-2.377,6.486c-0.529,0.606-1.137,1.141-1.808,1.589c0.237-0.41,0.426-0.847,0.559-1.302
		c0.004-0.014,0.007-0.026,0.01-0.038c1.316-5.772-2.012-7.23-2.154-7.289c-0.186-0.077-0.396-0.058-0.563,0.054
		c-0.167,0.112-0.267,0.299-0.267,0.5c0,0.422-0.087,1.8-1.201,1.8c-1.658,0-2.4-2.712-2.4-5.401c0-0.963,0.301-2.596,0.57-3.413
		c0.07-0.213,0.016-0.446-0.14-0.606c-0.156-0.161-0.389-0.221-0.603-0.157c-0.623,0.187-1.25,0.582-1.855,1.12
		c-0.42-0.605-0.76-1.261-1.011-1.954C14.701,11.084,14.407,9.329,14.403,8.444 M17.092,14.373c-0.165,0.826-0.289,1.754-0.289,2.43
		c0,1.793,0.28,3.348,0.81,4.495c0.804,1.741,1.961,2.106,2.79,2.106c1.247,0,1.976-0.852,2.261-1.91
		c0.663,0.717,1.459,2.27,0.759,5.358c-0.484,1.603-1.581,2.573-3.343,2.959c-0.54-0.622-1.271-1.006-2.077-1.006
		c-0.705,0-1.354,0.294-1.867,0.785c-0.752-0.3-1.421-0.722-1.909-1.21c-1.09-1.09-1.698-3.168-1.625-5.558
		c0.04-1.318,0.785-3.391,1.897-5.282C15.325,16.138,16.239,15.031,17.092,14.373 M7.801,19.204c0-2.2,0.42-3.556,1.147-5.153
		c0.011-0.026,0.025-0.053,0.039-0.084c-0.036,0.566-0.03,1.134,0.018,1.699c0.181,1.718,1.398,3.114,3.233,3.764
		c-0.501,1.249-0.808,2.441-0.836,3.355c-0.068,2.249,0.399,4.227,1.301,5.605c-0.949-0.604-1.792-1.359-2.498-2.235
		C8.655,24.231,7.801,21.762,7.801,19.204 M3.6,33.005c0,0.994-0.537,1.801-1.2,1.801c-0.663,0-1.2-0.807-1.2-1.801
		c0-0.993,0.537-1.8,1.2-1.8C3.063,31.206,3.6,32.012,3.6,33.005 M34.807,33.005c0,0.994-0.537,1.801-1.2,1.801
		s-1.2-0.807-1.2-1.801c0-0.993,0.537-1.8,1.2-1.8S34.807,32.012,34.807,33.005"/>
</g>
</svg>
