<?xml version="1.0" encoding="utf-8"?>
<!-- Generator: Adobe Illustrator 16.0.0, SVG Export Plug-In . SVG Version: 6.00 Build 0)  -->
<!DOCTYPE svg PUBLIC "-//W3C//DTD SVG 1.1//EN" "http://www.w3.org/Graphics/SVG/1.1/DTD/svg11.dtd">
<svg version="1.1" id="Layer_1" xmlns="http://www.w3.org/2000/svg" xmlns:xlink="http://www.w3.org/1999/xlink" x="0px" y="0px"
	 width="384px" height="364.82px" viewBox="0 0 384 364.82" enable-background="new 0 0 384 364.82" xml:space="preserve">
<rect x="197.625" y="299.094" width="130.273" height="11.25"/>
<rect x="56.102" y="299.094" width="130.273" height="11.25"/>
<g>
	<defs>
		<rect id="SVGID_1_" width="384" height="364.82"/>
	</defs>
	<clipPath id="SVGID_2_">
		<use xlink:href="#SVGID_1_"  overflow="visible"/>
	</clipPath>
	<path clip-path="url(#SVGID_2_)" d="M67.348,287.844h11.25v-16.325c0-14.636,11.793-26.238,28.039-27.593l53.308-4.435
		l17.149,4.285l2.73-10.914l-13.293-3.32l2.262-20.668l7.492,6.809h31.43l7.488-6.809l2.266,20.668l-13.293,3.32l2.727,10.914
		l17.152-4.285l53.305,4.435c16.25,1.354,28.039,12.957,28.039,27.593v16.325h11.25v-16.325c0-20.3-16.488-36.984-38.355-38.805
		l-49.613-4.129l-3.184-29.066l24.234-22.031l25.52-46.082V79.082L231.664,35.93l-7.918,7.996L264,83.777v35.766l-52.496-34.391
		l-6.164,9.41l34.293,22.465v54.434l-36.27,32.972h-22.73l-36.266-32.972v-54.434l67.992-44.543V0h-39.77l-28.621,35.621
		l8.769,7.047l25.246-31.418h23.125v55.156l-81.113,53.137V83.41l25.695-31.977l-8.769-7.046L108.75,79.449v51.957l25.52,46.082
		l24.234,22.031l-3.184,29.066l-49.613,4.129c-21.867,1.82-38.355,18.505-38.355,38.805v16.325H67.348z M262.176,131.793
		l-11.293,20.39v-27.785L262.176,131.793z M133.117,124.398v27.785l-11.293-20.39L133.117,124.398z"/>
	<rect x="257.363" y="272.012" clip-path="url(#SVGID_2_)" width="11.25" height="15.832"/>
	<rect x="115.387" y="272.012" clip-path="url(#SVGID_2_)" width="11.25" height="15.832"/>
	<rect x="177" y="169.457" clip-path="url(#SVGID_2_)" width="30" height="11.25"/>
	<path clip-path="url(#SVGID_2_)" d="M192,353.57c-49.309,0-95.598-5.082-130.344-14.308c-37.164-9.872-50.406-21.747-50.406-29.567
		c0-7.414,12.184-18.785,46.379-28.461L54.57,270.41C18.871,280.512,0,294.094,0,309.695c0,20.52,31.961,33.317,58.77,40.438
		c35.66,9.472,82.972,14.687,133.23,14.687c33.637,0,66.668-2.394,95.523-6.922l-1.742-11.113
		C257.492,351.222,225.062,353.57,192,353.57"/>
	<path clip-path="url(#SVGID_2_)" d="M329.43,270.41l-3.059,10.824c34.195,9.676,46.379,21.047,46.379,28.461
		c0,10.598-23.508,25.602-76.02,35.231l2.027,11.065C330.594,350.156,384,336.378,384,309.695
		C384,294.094,365.129,280.512,329.43,270.41"/>
	<rect x="163.875" y="327.214" clip-path="url(#SVGID_2_)" width="11.25" height="11.25"/>
	<rect x="186.375" y="327.214" clip-path="url(#SVGID_2_)" width="33.75" height="11.25"/>
	<path clip-path="url(#SVGID_2_)" d="M327.281,203.214c-2.586-4.48-1.047-10.223,3.43-12.809c4.773-2.754,8.188-7.203,9.609-12.523
		c1.426-5.321,0.695-10.879-2.059-15.653l-9.742,5.625c1.25,2.172,1.586,4.696,0.938,7.117c-0.648,2.418-2.199,4.438-4.371,5.692
		c-9.848,5.687-13.234,18.324-7.547,28.175L327.281,203.214z"/>
	
		<rect x="319.321" y="144.804" transform="matrix(-0.866 0.5 -0.5 -0.866 681.5699 118.2226)" clip-path="url(#SVGID_2_)" width="11.249" height="11.249"/>
	
		<rect x="47.524" y="215.015" transform="matrix(-0.5 0.866 -0.866 -0.5 270.8009 284.9381)" clip-path="url(#SVGID_2_)" width="11.249" height="11.249"/>
	
		<rect x="325.215" y="215.011" transform="matrix(-0.866 0.5 -0.5 -0.866 727.6743 246.2824)" clip-path="url(#SVGID_2_)" width="11.249" height="11.249"/>
	
		<rect x="53.418" y="144.804" transform="matrix(-0.5 0.866 -0.866 -0.5 218.8393 174.5153)" clip-path="url(#SVGID_2_)" width="11.249" height="11.25"/>
	<path clip-path="url(#SVGID_2_)" d="M53.289,190.406c4.477,2.586,6.016,8.328,3.43,12.809l9.742,5.625
		c5.687-9.848,2.301-22.488-7.547-28.175c-2.172-1.25-3.723-3.274-4.371-5.692c-0.645-2.417-0.313-4.945,0.937-7.113l-9.742-5.625
		c-2.754,4.77-3.484,10.328-2.058,15.649C45.102,183.207,48.516,187.652,53.289,190.406"/>
	<rect x="178.609" y="28.125" clip-path="url(#SVGID_2_)" width="11.25" height="11.25"/>
</g>
</svg>
