<?xml version="1.0" encoding="utf-8"?>
<!-- Generator: Adobe Illustrator 16.0.0, SVG Export Plug-In . SVG Version: 6.00 Build 0)  -->
<!DOCTYPE svg PUBLIC "-//W3C//DTD SVG 1.1//EN" "http://www.w3.org/Graphics/SVG/1.1/DTD/svg11.dtd">
<svg version="1.1" id="Layer_1" xmlns="http://www.w3.org/2000/svg" xmlns:xlink="http://www.w3.org/1999/xlink" x="0px" y="0px"
	 width="479.995px" height="480.049px" viewBox="0 0 479.995 480.049" enable-background="new 0 0 479.995 480.049"
	 xml:space="preserve">
<rect x="463.995" y="16.051" width="16" height="16"/>
<rect x="447.995" y="0.052" width="16" height="16"/>
<rect x="431.995" y="16.05" width="16" height="16"/>
<rect x="447.995" y="32.05" width="16" height="16"/>
<rect x="399.995" y="16.05" width="16" height="16"/>
<rect x="383.995" y="176.051" width="16" height="16"/>
<rect x="415.995" y="176.051" width="16" height="16"/>
<rect x="399.995" y="160.051" width="16" height="16"/>
<rect x="399.995" y="192.051" width="16" height="16"/>
<rect x="88.005" y="152.051" width="16" height="16"/>
<rect x="72.005" y="136.051" width="16" height="16"/>
<rect x="55.995" y="152.051" width="16" height="16"/>
<rect x="72.005" y="168.051" width="16" height="16"/>
<rect x="23.995" y="152.051" width="16" height="16"/>
<rect y="48.051" width="16" height="15.999"/>
<rect x="31.995" y="48.05" width="16" height="16"/>
<rect x="15.995" y="32.05" width="16" height="16"/>
<rect x="15.995" y="64.051" width="16" height="16"/>
<rect x="112.005" y="0.052" width="16" height="16"/>
<g>
	<defs>
		<rect id="SVGID_1_" width="479.995" height="480.049"/>
	</defs>
	<clipPath id="SVGID_2_">
		<use xlink:href="#SVGID_1_"  overflow="visible"/>
	</clipPath>
	<path clip-path="url(#SVGID_2_)" d="M430.617,375.973c-3.401-9.565-12.466-15.946-22.618-15.922h-19.353l-28.647-50.129V224.05
		c0-17.673-14.327-32-32-32v-104c1.623-46.978-35.144-86.377-82.122-88c-1.959-0.068-3.919-0.068-5.878,0
		c-55.008,0-86.4,45.184-88,87.696c0,0.104,0.056,0.2,0.056,0.304h-0.056v104c-17.673,0-32,14.327-32,32v85.872l-28.648,50.129H72
		c-13.224-0.027-23.966,10.67-23.994,23.894c-0.021,10.149,6.359,19.209,15.922,22.61c-11.555,13.061-10.334,33.017,2.728,44.571
		c4.72,4.177,10.583,6.845,16.832,7.66l155.432,21.192c0.72,0.094,1.448,0.094,2.168,0l155.432-21.192
		c17.292-2.259,29.479-18.107,27.221-35.399c-0.816-6.249-3.484-12.112-7.66-16.832
		C428.539,402.124,435.048,388.433,430.617,375.973 M240,16.051c38-1.764,70.236,27.611,72,65.612c0.099,2.128,0.099,4.26,0,6.388
		h-16c-22.08-0.026-39.974-17.92-40-40c-0.001-4.418-3.583-7.999-8.002-7.998c-2.121,0-4.154,0.843-5.654,2.342
		c-19.833,19.909-45.621,32.802-73.448,36.72C173.295,43.167,203.783,16.126,240,16.051 M224,200.051v-34.216
		c5.215,1.43,10.593,2.175,16,2.216c5.41-0.046,10.79-0.808,16-2.264v34.264c0,4.418,3.582,8,8,8h16v10.232l-40,13.336l-40-13.336
		v-10.232h16C220.418,208.051,224,204.469,224,200.051 M177.536,93.803c23.753-4.394,46.029-14.66,64.8-29.864
		c7.065,23.756,28.88,40.062,53.664,40.112h3.488c-10,26.84-35.36,48-59.488,48C212.216,152.051,184.152,125.124,177.536,93.803
		 M272,192.051v-32.68c17.662-9.94,31.679-25.272,40-43.752v76.432h-24H272z M168,115.644c8.271,18.519,22.3,33.872,40,43.776
		v32.632h-40V115.644z M184,208.051v16c0.003,3.442,2.206,6.496,5.472,7.584v0.008l48,16c1.643,0.552,3.42,0.552,5.064,0l48-16
		c3.265-1.091,5.466-4.149,5.464-7.592v-16h21.752l-36,144h-83.504l-36-144H184z M195.68,368.052h88.64l32.144,37.495L240,415.979
		l-76.464-10.4L195.68,368.052z M144.704,402.979l-14.76-2.008l50.12-55.696l3.2,12.712L144.704,402.979z M296.8,357.987l3.2-12.712
		l50.12,55.696l-14.792,2.008L296.8,357.987z M64,384.052c0-4.418,3.582-8,8-8h24c2.864,0.006,5.512-1.521,6.944-4l32-56
		c0.697-1.219,1.061-2.598,1.056-4v-88c0-6.535,3.975-12.414,10.04-14.848l14.672,58.681l14.664,58.68l-58.936,65.488H72
		C67.581,392.052,64,388.47,64,384.052 M240,463.979L85.648,442.923c-8.638-1.141-14.715-9.067-13.574-17.705
		c1.04-7.873,7.769-13.745,15.71-13.71c0.712,0,1.423,0.051,2.128,0.151l56.888,7.76l90.4,12.328l42.824,26.769L240,463.979z
		 M394.352,442.923L304.8,455.14l-41.832-26.145l70.176-9.6l56.881-7.76c8.633-1.211,16.611,4.806,17.822,13.438
		c0.104,0.734,0.154,1.476,0.153,2.217C407.972,435.171,402.156,441.832,394.352,442.923 M408,392.052h-44.44l-58.943-65.496
		l14.664-58.681l14.672-58.68c6.071,2.433,10.05,8.316,10.048,14.856v88c-0.005,1.402,0.359,2.781,1.056,4l32,56
		c1.433,2.479,4.08,4.006,6.944,4h24c4.418,0,8,3.582,8,8S412.418,392.052,408,392.052"/>
</g>
</svg>
