<?xml version="1.0" encoding="utf-8"?>
<!-- Generator: Adobe Illustrator 16.0.0, SVG Export Plug-In . SVG Version: 6.00 Build 0)  -->
<!DOCTYPE svg PUBLIC "-//W3C//DTD SVG 1.1//EN" "http://www.w3.org/Graphics/SVG/1.1/DTD/svg11.dtd">
<svg version="1.1" id="Layer_1" xmlns="http://www.w3.org/2000/svg" xmlns:xlink="http://www.w3.org/1999/xlink" x="0px" y="0px"
	 width="29.677px" height="29.676px" viewBox="0 0 29.677 29.676" enable-background="new 0 0 29.677 29.676" xml:space="preserve">
<g>
	<defs>
		<rect id="SVGID_1_" y="0" width="29.677" height="29.677"/>
	</defs>
	<clipPath id="SVGID_2_">
		<use xlink:href="#SVGID_1_"  overflow="visible"/>
	</clipPath>
	<path clip-path="url(#SVGID_2_)" d="M13.968,13.911c0.719,0,1.304-0.585,1.304-1.304c0-0.719-0.585-1.304-1.304-1.304H8.752
		c-0.719,0-1.304,0.585-1.304,1.304c0,0.719,0.585,1.304,1.304,1.304H13.968z M8.317,12.606c0-0.24,0.195-0.435,0.435-0.435h5.216
		c0.241,0,0.435,0.195,0.435,0.435c0,0.24-0.194,0.435-0.435,0.435H8.752C8.513,13.042,8.317,12.847,8.317,12.606"/>
	<path clip-path="url(#SVGID_2_)" d="M14.387,15.097c-0.053-0.187-0.224-0.316-0.417-0.316H8.752c-0.194,0-0.365,0.129-0.418,0.316
		L4.363,29.124c-0.065,0.231,0.069,0.471,0.3,0.536s0.472-0.069,0.537-0.3l1.912-6.755h3.814v1.305c0,0.24,0.194,0.434,0.434,0.434
		c0.24,0,0.435-0.193,0.435-0.434v-1.305h3.814l1.912,6.755c0.054,0.191,0.228,0.316,0.418,0.316c0.039,0,0.079-0.006,0.118-0.017
		c0.23-0.065,0.365-0.306,0.3-0.537L14.387,15.097z M13.64,15.649l0.246,0.87H8.835l0.246-0.87H13.64z M7.358,21.736l1.231-4.348
		h2.337v4.348H7.358z M11.795,21.736v-4.348h2.336l1.23,4.348H11.795z"/>
</g>
<g>
	<defs>
		<rect id="SVGID_3_" y="0" width="29.676" height="29.676"/>
	</defs>
	<clipPath id="SVGID_4_">
		<use xlink:href="#SVGID_3_"  overflow="visible"/>
	</clipPath>
	<path clip-path="url(#SVGID_4_)" d="M28.372,0.869c-0.567,0-1.05,0.364-1.229,0.87h-7.465c-0.24,0-0.435,0.194-0.435,0.434v0.435
		h-1.305c-0.239,0-0.435,0.195-0.435,0.435v0.434h-8.81V2.608h4.405c0.24,0,0.435-0.195,0.435-0.435V0.434
		C13.534,0.195,13.339,0,13.099,0H4.782c-0.24,0-0.435,0.195-0.435,0.434v1.739c0,0.24,0.195,0.435,0.435,0.435h1.304v0.869H4.782
		c-0.24,0-0.435,0.195-0.435,0.435v0.87H2.533c-0.179-0.506-0.662-0.87-1.229-0.87C0.585,3.912,0,4.497,0,5.216v3.478
		c0,0.719,0.585,1.304,1.304,1.304c0.567,0,1.05-0.363,1.229-0.869h1.814v0.869c0,0.24,0.195,0.435,0.435,0.435h12.722v0.435
		c0,0.24,0.195,0.434,0.435,0.434h1.305v0.435c0,0.24,0.194,0.435,0.435,0.435h7.465c0.18,0.506,0.662,0.869,1.229,0.869
		c0.719,0,1.304-0.585,1.304-1.304V2.173C29.676,1.454,29.091,0.869,28.372,0.869 M1.739,8.694c0,0.24-0.195,0.435-0.435,0.435
		c-0.239,0-0.434-0.195-0.434-0.435V5.216c0-0.239,0.195-0.434,0.434-0.434c0.24,0,0.435,0.195,0.435,0.434V8.694z M2.608,5.651
		h1.739v2.608H2.608V5.651z M12.665,1.739h-0.869V0.87h0.869V1.739z M5.217,0.869h5.709v0.869H5.217V0.869z M6.955,2.608h0.869
		v0.869H6.955V2.608z M5.217,4.347h12.288v5.217H5.217V4.347z M18.374,3.477h0.869v6.955h-0.869V3.477z M28.807,11.737
		c0,0.24-0.194,0.435-0.435,0.435c-0.239,0-0.435-0.195-0.435-0.435V3.912c0-0.24-0.194-0.435-0.435-0.435s-0.435,0.195-0.435,0.435
		v7.39h-6.955V2.608h7.39c0.24,0,0.435-0.195,0.435-0.435c0-0.239,0.195-0.434,0.435-0.434c0.24,0,0.435,0.195,0.435,0.434V11.737z"
		/>
</g>
</svg>
