<?xml version="1.0" encoding="utf-8"?>
<!-- Generator: Adobe Illustrator 16.0.0, SVG Export Plug-In . SVG Version: 6.00 Build 0)  -->
<!DOCTYPE svg PUBLIC "-//W3C//DTD SVG 1.1//EN" "http://www.w3.org/Graphics/SVG/1.1/DTD/svg11.dtd">
<svg version="1.1" id="Layer_1" xmlns="http://www.w3.org/2000/svg" xmlns:xlink="http://www.w3.org/1999/xlink" x="0px" y="0px"
	 width="28.75px" height="28.75px" viewBox="0 0 28.75 28.75" enable-background="new 0 0 28.75 28.75" xml:space="preserve">
<g>
	<defs>
		<rect id="SVGID_1_" width="28.75" height="28.75"/>
	</defs>
	<clipPath id="SVGID_2_">
		<use xlink:href="#SVGID_1_"  overflow="visible"/>
	</clipPath>
	<path clip-path="url(#SVGID_2_)" d="M1.032,9.747L1.13,9.812c0.201,0.134,0.422,0.235,0.655,0.3
		c-0.252,0.322-0.391,0.72-0.394,1.129v0.352c0,1.024,0.83,1.855,1.855,1.855h0.351c0.41-0.002,0.808-0.141,1.13-0.395
		c0.065,0.233,0.166,0.454,0.299,0.656l0.065,0.097c0.429,0.646,1.154,1.034,1.93,1.033h0.796c0.776,0.001,1.5-0.387,1.93-1.033
		l0.065-0.097c0.133-0.202,0.234-0.423,0.299-0.656c0.322,0.254,0.72,0.393,1.13,0.395h0.351c1.025,0,1.855-0.831,1.855-1.855
		v-0.352c-0.004-0.409-0.142-0.807-0.394-1.129c0.232-0.065,0.454-0.166,0.655-0.3l0.098-0.065c0.645-0.43,1.033-1.154,1.032-1.929
		V7.021c0.001-0.776-0.388-1.5-1.032-1.93l-0.098-0.064c-0.201-0.134-0.423-0.235-0.655-0.3c0.252-0.323,0.39-0.72,0.394-1.13V3.246
		c0-1.024-0.83-1.855-1.855-1.855h-0.351c-0.41,0.001-0.808,0.14-1.13,0.394C10.046,1.553,9.945,1.332,9.813,1.13L9.748,1.033
		C9.317,0.387,8.593-0.001,7.817,0H7.021c-0.776-0.001-1.501,0.387-1.93,1.033L5.026,1.13C4.894,1.332,4.792,1.553,4.728,1.785
		c-0.322-0.254-0.72-0.393-1.13-0.394H3.247c-1.025,0-1.855,0.831-1.855,1.855v0.351c0.003,0.41,0.142,0.807,0.394,1.13
		c-0.232,0.065-0.454,0.166-0.655,0.3L1.032,5.091C0.387,5.521,0,6.245,0,7.021v0.797C0,8.593,0.387,9.317,1.032,9.747 M4.967,10.45
		c-0.216,0.36-0.33,0.773-0.33,1.193v0.221l-0.384,0.384c-0.174,0.175-0.41,0.273-0.656,0.272H3.247
		c-0.513,0-0.928-0.415-0.928-0.927v-0.352c0.001-0.246,0.098-0.481,0.272-0.655l0.384-0.384h0.221c0.421,0,0.833-0.115,1.194-0.331
		l1.446-0.868L4.967,10.45z M7.419,6.492c0.512,0,0.927,0.415,0.927,0.927c0,0.513-0.415,0.928-0.927,0.928S6.492,7.932,6.492,7.419
		C6.492,6.907,6.907,6.492,7.419,6.492 M9.274,12.422c0.001,0.275-0.08,0.543-0.232,0.772l-0.065,0.098
		c-0.258,0.388-0.694,0.621-1.16,0.619H7.021c-0.466,0.002-0.902-0.231-1.16-0.619l-0.065-0.098
		c-0.152-0.229-0.233-0.497-0.232-0.772v-0.779c0-0.252,0.069-0.5,0.198-0.716l1.057-1.762c0.046,0.015,0.09,0.03,0.136,0.042v0.995
		h0.928V9.208C7.929,9.196,7.976,9.181,8.02,9.166l1.056,1.762c0.13,0.216,0.198,0.463,0.199,0.715V12.422z M12.521,11.593
		c0,0.512-0.415,0.927-0.928,0.927h-0.351c-0.246,0.001-0.482-0.097-0.656-0.272l-0.384-0.384v-0.221c0-0.42-0.114-0.833-0.33-1.193
		L9.003,9.003l1.446,0.868c0.361,0.216,0.773,0.331,1.193,0.331h0.222l0.384,0.384c0.173,0.174,0.271,0.409,0.272,0.655V11.593z
		 M13.292,5.864c0.387,0.258,0.62,0.692,0.62,1.157v0.797c0,0.465-0.232,0.901-0.62,1.159l-0.097,0.065
		c-0.229,0.152-0.498,0.233-0.772,0.232h-0.78c-0.252,0-0.499-0.068-0.716-0.198L9.165,8.019c0.016-0.046,0.03-0.09,0.043-0.136
		h0.994V6.956H9.208C9.196,6.909,9.182,6.863,9.167,6.819l1.762-1.056c0.216-0.13,0.463-0.198,0.714-0.199h0.78
		c0.274,0,0.543,0.08,0.772,0.232L13.292,5.864z M9.872,4.389c0.216-0.361,0.33-0.773,0.33-1.193V2.974l0.384-0.384
		c0.174-0.174,0.41-0.272,0.656-0.271h0.351c0.513,0,0.928,0.415,0.928,0.927v0.351c-0.001,0.246-0.099,0.482-0.272,0.656
		l-0.384,0.384h-0.222c-0.42,0-0.832,0.114-1.193,0.331L9.003,5.835L9.872,4.389z M5.564,2.416c-0.001-0.274,0.08-0.543,0.232-0.771
		l0.065-0.098c0.258-0.388,0.694-0.621,1.16-0.62h0.796c0.466-0.001,0.902,0.232,1.16,0.62l0.065,0.098
		c0.152,0.228,0.233,0.497,0.232,0.771v0.78c0,0.252-0.069,0.499-0.198,0.716L8.02,5.674c-0.046-0.015-0.09-0.03-0.136-0.042V4.637
		H6.956V5.63C6.909,5.642,6.862,5.657,6.819,5.673L5.763,3.91c-0.13-0.216-0.198-0.462-0.199-0.714V2.416z M2.318,3.246
		c0-0.512,0.415-0.927,0.928-0.927h0.351C3.843,2.318,4.08,2.416,4.253,2.59l0.384,0.384v0.222c0,0.42,0.114,0.832,0.33,1.193
		l0.868,1.446L4.389,4.968C4.028,4.751,3.616,4.637,3.195,4.637H2.975L2.59,4.253c-0.174-0.174-0.271-0.41-0.272-0.656V3.246z
		 M0.927,7.021C0.926,6.555,1.159,6.12,1.547,5.862l0.097-0.066c0.229-0.152,0.497-0.232,0.772-0.232h0.779
		c0.253,0,0.5,0.069,0.716,0.199l1.763,1.056c-0.016,0.047-0.031,0.09-0.043,0.137H4.637v0.927H5.63
		c0.012,0.046,0.027,0.093,0.042,0.136L3.91,9.076C3.694,9.205,3.447,9.274,3.195,9.274H2.417c-0.275,0.001-0.543-0.08-0.772-0.232
		L1.547,8.977c-0.388-0.258-0.621-0.694-0.62-1.159V7.021z"/>
	<path clip-path="url(#SVGID_2_)" d="M28.286,15.766H8.811c-0.256,0-0.464,0.208-0.464,0.464v1.855
		c0.006,4.147,2.901,7.731,6.956,8.609v1.593c0,0.256,0.207,0.463,0.464,0.463h5.564c0.256,0,0.464-0.207,0.464-0.463v-1.593
		c4.054-0.878,6.948-4.462,6.955-8.609v-1.855C28.75,15.974,28.543,15.766,28.286,15.766 M25.968,17.621H9.273v-0.928h16.694V17.621
		z M20.866,27.822h-4.637v-0.977c0.309,0.033,0.618,0.049,0.928,0.049h2.782c0.311,0,0.619-0.016,0.927-0.049V27.822z
		 M27.822,18.085c-0.005,4.352-3.53,7.878-7.883,7.883h-2.782c-4.168-0.007-7.613-3.258-7.86-7.419h16.596
		c-0.462,3.189-3.194,5.559-6.418,5.563h-0.463v0.929h0.463c4.096-0.005,7.415-3.324,7.42-7.42v-0.928h0.927V18.085z"/>
	<path clip-path="url(#SVGID_2_)" d="M0.521,20.407c-0.254-0.032-0.486,0.148-0.517,0.402c-0.005,0.038-0.005,0.077,0,0.115
		c0.009,0.077,1.046,7.825,6.951,7.825c0.123,0,0.241-0.049,0.328-0.136l0.928-0.928c0.087-0.087,0.136-0.205,0.136-0.328
		C8.347,21.453,0.599,20.416,0.521,20.407 M1.039,21.442c1.699,0.364,6.233,1.709,6.376,5.721l-3.378-3.378L3.382,24.44l3.378,3.378
		C2.748,27.675,1.403,23.14,1.039,21.442"/>
	<path clip-path="url(#SVGID_2_)" d="M18.685,11.921c0.087,0.087,0.205,0.136,0.328,0.136c5.905,0,6.942-7.748,6.951-7.826
		c0.031-0.254-0.148-0.486-0.402-0.517c-0.038-0.005-0.077-0.005-0.115,0c-0.078,0.009-7.826,1.046-7.826,6.951
		c0,0.123,0.05,0.241,0.137,0.328L18.685,11.921z M24.929,4.749c-0.364,1.699-1.709,6.232-5.721,6.376l3.378-3.378l-0.655-0.655
		l-3.378,3.378C18.695,6.458,23.231,5.113,24.929,4.749"/>
</g>
</svg>
